<mxfile host="app.diagrams.net" modified="2021-11-09T13:27:36.184Z" agent="5.0 (Windows NT 10.0; Win64; x64) AppleWebKit/537.36 (KHTML, like Gecko) Chrome/95.0.4638.69 Safari/537.36 Edg/95.0.1020.44" etag="YQN4DQZj4xu_IXDMksd6" version="15.7.0" type="github" pages="3">
  <diagram id="LYs9jlWkUUdBGs7bz0lL" name="Main">
    <mxGraphModel dx="2607" dy="1560" grid="1" gridSize="2" guides="1" tooltips="1" connect="1" arrows="1" fold="1" page="1" pageScale="1" pageWidth="1100" pageHeight="850" math="0" shadow="0">
      <root>
        <mxCell id="0" />
        <mxCell id="1" parent="0" />
        <UserObject label="Vixen" lucidchartObjectId="rNwogV_dCgLL" id="FUiJqStSi06S3eD_Z6eS-2">
          <mxCell style="html=1;overflow=block;blockSpacing=1;whiteSpace=wrap;;whiteSpace=wrap;fontSize=16.7;fontColor=#333333;spacing=3.8;strokeColor=#5e5e5e;strokeOpacity=100;absoluteArcSize=1;arcSize=9;strokeWidth=2.3;rounded=1;sketch=1;" parent="1" vertex="1">
            <mxGeometry x="227.5" y="520" width="120" height="45" as="geometry" />
          </mxCell>
        </UserObject>
        <UserObject label="SalmonRiver" lucidchartObjectId="HNwoF9cMgqQK" id="FUiJqStSi06S3eD_Z6eS-3">
          <mxCell style="html=1;overflow=block;blockSpacing=1;whiteSpace=wrap;;whiteSpace=wrap;fontSize=16.7;fontColor=#333333;spacing=3.8;strokeColor=#5e5e5e;strokeOpacity=100;absoluteArcSize=1;arcSize=9;strokeWidth=2.3;rounded=1;sketch=1;" parent="1" vertex="1">
            <mxGeometry x="377.5" y="520" width="120" height="45" as="geometry" />
          </mxCell>
        </UserObject>
        <UserObject label="SparkCall" lucidchartObjectId="INwogG9h2kRV" id="FUiJqStSi06S3eD_Z6eS-4">
          <mxCell style="html=1;overflow=block;blockSpacing=1;whiteSpace=wrap;;whiteSpace=wrap;fontSize=16.7;fontColor=#333333;spacing=3.8;strokeColor=#5e5e5e;strokeOpacity=100;absoluteArcSize=1;arcSize=9;strokeWidth=2.3;rounded=1;sketch=1;" parent="1" vertex="1">
            <mxGeometry x="527.5" y="520" width="120" height="45" as="geometry" />
          </mxCell>
        </UserObject>
        <UserObject label="RobinBelly" lucidchartObjectId="nOwo3FwqswKj" id="FUiJqStSi06S3eD_Z6eS-5">
          <mxCell style="html=1;overflow=block;blockSpacing=1;whiteSpace=wrap;;whiteSpace=wrap;fontSize=16.7;fontColor=#333333;spacing=3.8;strokeColor=#5e5e5e;strokeOpacity=100;absoluteArcSize=1;arcSize=9;strokeWidth=2.3;rounded=1;sketch=1;" parent="1" vertex="1">
            <mxGeometry x="1427.5" y="596" width="120" height="45" as="geometry" />
          </mxCell>
        </UserObject>
        <UserObject label="RippedScar" lucidchartObjectId="nOwo7iQaO23C" id="FUiJqStSi06S3eD_Z6eS-6">
          <mxCell style="html=1;overflow=block;blockSpacing=1;whiteSpace=wrap;;whiteSpace=wrap;fontSize=16.7;fontColor=#333333;spacing=3.8;strokeColor=#5e5e5e;strokeOpacity=100;absoluteArcSize=1;arcSize=9;strokeWidth=2.3;rounded=1;sketch=1;" parent="1" vertex="1">
            <mxGeometry x="1052.5" y="445" width="120" height="45" as="geometry" />
          </mxCell>
        </UserObject>
        <UserObject label="LightLeap" lucidchartObjectId="nOwo-KONdXus" id="FUiJqStSi06S3eD_Z6eS-7">
          <mxCell style="html=1;overflow=block;blockSpacing=1;whiteSpace=wrap;;whiteSpace=wrap;fontSize=16.7;fontColor=#333333;spacing=3.8;strokeColor=#5e5e5e;strokeOpacity=100;absoluteArcSize=1;arcSize=9;strokeWidth=2.3;rounded=1;sketch=1;" parent="1" vertex="1">
            <mxGeometry x="977.5" y="520" width="120" height="45" as="geometry" />
          </mxCell>
        </UserObject>
        <mxCell id="FUiJqStSi06S3eD_Z6eS-78" style="edgeStyle=orthogonalEdgeStyle;orthogonalLoop=1;jettySize=auto;html=1;exitX=1;exitY=0.5;exitDx=0;exitDy=0;entryX=0;entryY=0.5;entryDx=0;entryDy=0;endArrow=none;endFill=0;sketch=1;" parent="1" source="FUiJqStSi06S3eD_Z6eS-8" target="FUiJqStSi06S3eD_Z6eS-10" edge="1">
          <mxGeometry relative="1" as="geometry" />
        </mxCell>
        <UserObject label="LakeRose" lucidchartObjectId="nOwoG6fCtJm5" id="FUiJqStSi06S3eD_Z6eS-8">
          <mxCell style="html=1;overflow=block;blockSpacing=1;whiteSpace=wrap;;whiteSpace=wrap;fontSize=16.7;fontColor=#333333;spacing=3.8;strokeColor=#5e5e5e;strokeOpacity=100;absoluteArcSize=1;arcSize=9;strokeWidth=2.3;rounded=1;sketch=1;" parent="1" vertex="1">
            <mxGeometry x="1277.5" y="520" width="120" height="45" as="geometry" />
          </mxCell>
        </UserObject>
        <UserObject label="TigerLeap" lucidchartObjectId="~UwoI_.Jccfk" id="FUiJqStSi06S3eD_Z6eS-9">
          <mxCell style="html=1;overflow=block;blockSpacing=1;whiteSpace=wrap;;whiteSpace=wrap;fontSize=16.7;fontColor=#333333;spacing=3.8;strokeColor=#5e5e5e;strokeOpacity=100;absoluteArcSize=1;arcSize=9;strokeWidth=2.3;rounded=1;sketch=1;" parent="1" vertex="1">
            <mxGeometry x="1707.5" y="520" width="120" height="45" as="geometry" />
          </mxCell>
        </UserObject>
        <UserObject label="CricketMist" lucidchartObjectId="~UwojIPjVIOI" id="FUiJqStSi06S3eD_Z6eS-10">
          <mxCell style="html=1;overflow=block;blockSpacing=1;whiteSpace=wrap;;whiteSpace=wrap;fontSize=16.7;fontColor=#333333;spacing=3.8;strokeColor=#5e5e5e;strokeOpacity=100;absoluteArcSize=1;arcSize=9;strokeWidth=2.3;rounded=1;sketch=1;" parent="1" vertex="1">
            <mxGeometry x="1427.5" y="520" width="120" height="45" as="geometry" />
          </mxCell>
        </UserObject>
        <mxCell id="FUiJqStSi06S3eD_Z6eS-11" style="edgeStyle=none;orthogonalLoop=1;jettySize=auto;html=1;exitX=0.5;exitY=0;exitDx=0;exitDy=0;endArrow=none;endFill=0;sketch=1;" parent="1" source="FUiJqStSi06S3eD_Z6eS-72" edge="1">
          <mxGeometry relative="1" as="geometry">
            <mxPoint x="2018" y="333" as="targetPoint" />
            <Array as="points">
              <mxPoint x="2160" y="360" />
              <mxPoint x="2018" y="360" />
            </Array>
          </mxGeometry>
        </mxCell>
        <UserObject label="FernFate" lucidchartObjectId="AWwoFBo2OCs_" id="FUiJqStSi06S3eD_Z6eS-12">
          <mxCell style="html=1;overflow=block;blockSpacing=1;whiteSpace=wrap;;whiteSpace=wrap;fontSize=16.7;fontColor=#333333;spacing=3.8;strokeColor=#5e5e5e;strokeOpacity=100;absoluteArcSize=1;arcSize=9;strokeWidth=2.3;rounded=1;sketch=1;" parent="1" vertex="1">
            <mxGeometry x="1957.5" y="380" width="120" height="45" as="geometry" />
          </mxCell>
        </UserObject>
        <UserObject label="WishTwist" lucidchartObjectId="AWwozbQCYoxc" id="FUiJqStSi06S3eD_Z6eS-13">
          <mxCell style="html=1;overflow=block;blockSpacing=1;whiteSpace=wrap;;whiteSpace=wrap;fontSize=16.7;fontColor=#333333;spacing=3.8;strokeColor=#5e5e5e;strokeOpacity=100;absoluteArcSize=1;arcSize=9;strokeWidth=2.3;rounded=1;sketch=1;" parent="1" vertex="1">
            <mxGeometry x="1857.5" y="520" width="120" height="45" as="geometry" />
          </mxCell>
        </UserObject>
        <UserObject label="" lucidchartObjectId="TXwo7eGYLWNq" id="FUiJqStSi06S3eD_Z6eS-15">
          <mxCell style="html=1;jettySize=18;whiteSpace=wrap;fontSize=13;strokeColor=#b85450;strokeOpacity=100;strokeWidth=1.5;arcSize=12;edgeStyle=orthogonalEdgeStyle;startArrow=none;;endArrow=none;;exitX=-0.009;exitY=0.5;exitPerimeter=0;entryX=1.009;entryY=0.5;entryPerimeter=0;fillColor=#f8cecc;sketch=1;" parent="1" target="FUiJqStSi06S3eD_Z6eS-6" edge="1">
            <mxGeometry width="100" height="100" relative="1" as="geometry">
              <Array as="points" />
              <mxPoint x="1201.42" y="467.5" as="sourcePoint" />
            </mxGeometry>
          </mxCell>
        </UserObject>
        <UserObject label="" lucidchartObjectId="E7wo4Ei~iOmB" id="FUiJqStSi06S3eD_Z6eS-16">
          <mxCell style="html=1;jettySize=18;whiteSpace=wrap;fontSize=13;strokeColor=#5E5E5E;strokeWidth=1.5;arcSize=12;edgeStyle=orthogonalEdgeStyle;startArrow=none;;endArrow=none;;exitX=0.5;exitY=-0.025;exitPerimeter=0;sketch=1;" parent="1" source="FUiJqStSi06S3eD_Z6eS-18" edge="1">
            <mxGeometry width="100" height="100" relative="1" as="geometry">
              <Array as="points" />
              <mxPoint x="1187.5" y="468" as="targetPoint" />
            </mxGeometry>
          </mxCell>
        </UserObject>
        <UserObject label="BloomStep" lucidchartObjectId="v8woDU3B5V1E" id="FUiJqStSi06S3eD_Z6eS-17">
          <mxCell style="html=1;overflow=block;blockSpacing=1;whiteSpace=wrap;;whiteSpace=wrap;fontSize=16.7;fontColor=#333333;spacing=3.8;strokeColor=#5e5e5e;strokeOpacity=100;absoluteArcSize=1;arcSize=9;strokeWidth=2.3;rounded=1;sketch=1;" parent="1" vertex="1">
            <mxGeometry x="977.5" y="595" width="120" height="45" as="geometry" />
          </mxCell>
        </UserObject>
        <UserObject label="ThornFate" lucidchartObjectId="Q8wovV4.A276" id="FUiJqStSi06S3eD_Z6eS-18">
          <mxCell style="html=1;overflow=block;blockSpacing=1;whiteSpace=wrap;;whiteSpace=wrap;fontSize=16.7;fontColor=#333333;spacing=3.8;strokeColor=#5e5e5e;strokeOpacity=100;absoluteArcSize=1;arcSize=9;strokeWidth=2.3;rounded=1;sketch=1;" parent="1" vertex="1">
            <mxGeometry x="1127.5" y="595" width="120" height="45" as="geometry" />
          </mxCell>
        </UserObject>
        <UserObject label="MapleFreckle" lucidchartObjectId="T8wokQpCtD0_" id="FUiJqStSi06S3eD_Z6eS-19">
          <mxCell style="html=1;overflow=block;blockSpacing=1;whiteSpace=wrap;;whiteSpace=wrap;fontSize=16.7;fontColor=#333333;spacing=3.8;strokeColor=#5e5e5e;strokeOpacity=100;absoluteArcSize=1;arcSize=9;strokeWidth=2.3;rounded=1;sketch=1;" parent="1" vertex="1">
            <mxGeometry x="1277.5" y="594" width="120" height="48" as="geometry" />
          </mxCell>
        </UserObject>
        <UserObject label="" lucidchartObjectId="Gzyo0qhNV2Ji" id="FUiJqStSi06S3eD_Z6eS-20">
          <mxCell style="html=1;jettySize=18;whiteSpace=wrap;fontSize=13;strokeColor=#5E5E5E;strokeWidth=1.5;arcSize=12;edgeStyle=orthogonalEdgeStyle;startArrow=none;;endArrow=none;;exitX=-0.009;exitY=0.5;exitPerimeter=0;entryX=1.009;entryY=0.5;entryPerimeter=0;sketch=1;" parent="1" source="FUiJqStSi06S3eD_Z6eS-19" target="FUiJqStSi06S3eD_Z6eS-18" edge="1">
            <mxGeometry width="100" height="100" relative="1" as="geometry">
              <Array as="points" />
            </mxGeometry>
          </mxCell>
        </UserObject>
        <UserObject label="" lucidchartObjectId="Jzyo0tXkxQN0" id="FUiJqStSi06S3eD_Z6eS-21">
          <mxCell style="html=1;jettySize=18;whiteSpace=wrap;fontSize=13;strokeColor=#5E5E5E;strokeWidth=1.5;arcSize=12;edgeStyle=orthogonalEdgeStyle;startArrow=none;;endArrow=none;;exitX=-0.009;exitY=0.5;exitPerimeter=0;entryX=1.009;entryY=0.5;entryPerimeter=0;sketch=1;" parent="1" source="FUiJqStSi06S3eD_Z6eS-18" target="FUiJqStSi06S3eD_Z6eS-17" edge="1">
            <mxGeometry width="100" height="100" relative="1" as="geometry">
              <Array as="points" />
            </mxGeometry>
          </mxCell>
        </UserObject>
        <UserObject label="" lucidchartObjectId="7HyoYzM~DbjK" id="FUiJqStSi06S3eD_Z6eS-22">
          <mxCell style="html=1;jettySize=18;whiteSpace=wrap;fontSize=13;strokeColor=#b85450;strokeOpacity=100;strokeWidth=1.5;arcSize=12;edgeStyle=orthogonalEdgeStyle;startArrow=none;;endArrow=none;;exitX=-0.009;exitY=0.5;exitPerimeter=0;entryX=1.009;entryY=0.526;entryPerimeter=0;fillColor=#f8cecc;sketch=1;" parent="1" source="FUiJqStSi06S3eD_Z6eS-5" target="FUiJqStSi06S3eD_Z6eS-19" edge="1">
            <mxGeometry width="100" height="100" relative="1" as="geometry">
              <Array as="points" />
            </mxGeometry>
          </mxCell>
        </UserObject>
        <UserObject label="MistFate" lucidchartObjectId="U62nv5oN26xm" id="FUiJqStSi06S3eD_Z6eS-23">
          <mxCell style="html=1;overflow=block;blockSpacing=1;whiteSpace=wrap;;whiteSpace=wrap;fontSize=16.7;fontColor=#333333;spacing=3.8;strokeColor=#5e5e5e;strokeOpacity=100;absoluteArcSize=1;arcSize=9;strokeWidth=2.3;rounded=1;sketch=1;" parent="1" vertex="1">
            <mxGeometry x="90" y="345" width="120" height="45" as="geometry" />
          </mxCell>
        </UserObject>
        <UserObject label="RootFate" lucidchartObjectId="6w6n-J9yklSA" id="FUiJqStSi06S3eD_Z6eS-24">
          <mxCell style="html=1;overflow=block;blockSpacing=1;whiteSpace=wrap;;whiteSpace=wrap;fontSize=16.7;fontColor=#333333;spacing=3.8;strokeColor=#5e5e5e;strokeOpacity=100;absoluteArcSize=1;arcSize=9;strokeWidth=2.3;rounded=1;sketch=1;" parent="1" vertex="1">
            <mxGeometry x="385" y="345" width="120" height="45" as="geometry" />
          </mxCell>
        </UserObject>
        <mxCell id="FUiJqStSi06S3eD_Z6eS-25" style="edgeStyle=none;orthogonalLoop=1;jettySize=auto;html=1;exitX=0;exitY=0.5;exitDx=0;exitDy=0;endArrow=none;endFill=0;fillColor=#f8cecc;strokeColor=#b85450;sketch=1;" parent="1" source="FUiJqStSi06S3eD_Z6eS-26" target="FUiJqStSi06S3eD_Z6eS-29" edge="1">
          <mxGeometry relative="1" as="geometry" />
        </mxCell>
        <UserObject label="BlueThroat" lucidchartObjectId="9w6nF3neg0Av" id="FUiJqStSi06S3eD_Z6eS-26">
          <mxCell style="html=1;overflow=block;blockSpacing=1;whiteSpace=wrap;;whiteSpace=wrap;fontSize=16.7;fontColor=#333333;spacing=3.8;strokeColor=#5e5e5e;strokeOpacity=100;absoluteArcSize=1;arcSize=9;strokeWidth=2.3;rounded=1;sketch=1;" parent="1" vertex="1">
            <mxGeometry x="1040" y="280" width="120" height="45" as="geometry" />
          </mxCell>
        </UserObject>
        <UserObject label="RedSpot" lucidchartObjectId="ix6n19~cwBaz" id="FUiJqStSi06S3eD_Z6eS-27">
          <mxCell style="html=1;overflow=block;blockSpacing=1;whiteSpace=wrap;;whiteSpace=wrap;fontSize=16.7;fontColor=#333333;spacing=3.8;strokeColor=#5e5e5e;strokeOpacity=100;absoluteArcSize=1;arcSize=9;strokeWidth=2.3;rounded=1;sketch=1;" parent="1" vertex="1">
            <mxGeometry x="677.5" y="345" width="120" height="45" as="geometry" />
          </mxCell>
        </UserObject>
        <UserObject label="IcyFur" lucidchartObjectId="lx6nJb_0bG_-" id="FUiJqStSi06S3eD_Z6eS-28">
          <mxCell style="html=1;overflow=block;blockSpacing=1;whiteSpace=wrap;;whiteSpace=wrap;fontSize=16.7;fontColor=#333333;spacing=3.8;strokeColor=#5e5e5e;strokeOpacity=100;absoluteArcSize=1;arcSize=9;strokeWidth=2.3;rounded=1;sketch=1;" parent="1" vertex="1">
            <mxGeometry x="240" y="345" width="120" height="45" as="geometry" />
          </mxCell>
        </UserObject>
        <UserObject label="AmberSong" lucidchartObjectId="nx6n3Eqgzo.t" id="FUiJqStSi06S3eD_Z6eS-29">
          <mxCell style="html=1;overflow=block;blockSpacing=1;whiteSpace=wrap;;whiteSpace=wrap;fontSize=16.7;fontColor=#333333;spacing=3.8;strokeColor=#5e5e5e;strokeOpacity=100;absoluteArcSize=1;arcSize=9;strokeWidth=2.3;rounded=1;sketch=1;" parent="1" vertex="1">
            <mxGeometry x="880" y="280" width="120" height="45" as="geometry" />
          </mxCell>
        </UserObject>
        <UserObject label="FernPuddle(Step)" lucidchartObjectId="jC6nwOgTyKPv" id="FUiJqStSi06S3eD_Z6eS-30">
          <mxCell style="html=1;overflow=block;blockSpacing=1;whiteSpace=wrap;;whiteSpace=wrap;fontSize=16.7;fontColor=#333333;spacing=3.8;strokeColor=#5e5e5e;strokeOpacity=100;absoluteArcSize=1;arcSize=9;strokeWidth=2.3;rounded=1;sketch=1;" parent="1" vertex="1">
            <mxGeometry x="1202.5" y="445" width="120" height="45" as="geometry" />
          </mxCell>
        </UserObject>
        <UserObject label="WetClaw" lucidchartObjectId="sC6n0QGDRm1p" id="FUiJqStSi06S3eD_Z6eS-31">
          <mxCell style="html=1;overflow=block;blockSpacing=1;whiteSpace=wrap;;whiteSpace=wrap;fontSize=16.7;fontColor=#333333;spacing=3.8;strokeColor=#5e5e5e;strokeOpacity=100;absoluteArcSize=1;arcSize=9;strokeWidth=2.3;rounded=1;sketch=1;" parent="1" vertex="1">
            <mxGeometry x="535" y="345" width="120" height="45" as="geometry" />
          </mxCell>
        </UserObject>
        <UserObject label="PineBlaze" lucidchartObjectId="uC6ns7wwrMkW" id="FUiJqStSi06S3eD_Z6eS-32">
          <mxCell style="html=1;overflow=block;blockSpacing=1;whiteSpace=wrap;;whiteSpace=wrap;fontSize=16.7;fontColor=#333333;spacing=3.8;strokeColor=#5e5e5e;strokeOpacity=100;absoluteArcSize=1;arcSize=9;strokeWidth=2.3;rounded=1;sketch=1;" parent="1" vertex="1">
            <mxGeometry x="1267.5" y="345" width="120" height="45" as="geometry" />
          </mxCell>
        </UserObject>
        <UserObject label="FloralHeart" lucidchartObjectId="xC6nqglZxt7i" id="FUiJqStSi06S3eD_Z6eS-33">
          <mxCell style="html=1;overflow=block;blockSpacing=1;whiteSpace=wrap;;whiteSpace=wrap;fontSize=16.7;fontColor=#333333;spacing=3.8;strokeColor=#5e5e5e;strokeOpacity=100;absoluteArcSize=1;arcSize=9;strokeWidth=2.3;rounded=1;sketch=1;" parent="1" vertex="1">
            <mxGeometry x="1350" y="675" width="120" height="45" as="geometry" />
          </mxCell>
        </UserObject>
        <UserObject label="FlameFace" lucidchartObjectId="aD6n6iyjvHGV" id="FUiJqStSi06S3eD_Z6eS-34">
          <mxCell style="html=1;overflow=block;blockSpacing=1;whiteSpace=wrap;;whiteSpace=wrap;fontSize=16.7;fontColor=#333333;spacing=3.8;strokeColor=#5e5e5e;strokeOpacity=100;absoluteArcSize=1;arcSize=9;strokeWidth=2.3;rounded=1;sketch=1;" parent="1" vertex="1">
            <mxGeometry x="1657.5" y="365" width="120" height="45" as="geometry" />
          </mxCell>
        </UserObject>
        <UserObject label="SandFeather" lucidchartObjectId="DD6n1941-2t5" id="FUiJqStSi06S3eD_Z6eS-35">
          <mxCell style="html=1;overflow=block;blockSpacing=1;whiteSpace=wrap;;whiteSpace=wrap;fontSize=16.7;fontColor=#333333;spacing=3.8;strokeColor=#5e5e5e;strokeOpacity=100;absoluteArcSize=1;arcSize=9;strokeWidth=2.3;rounded=1;sketch=1;" parent="1" vertex="1">
            <mxGeometry x="827.5" y="345" width="120" height="45" as="geometry" />
          </mxCell>
        </UserObject>
        <UserObject label="BriarFoot" lucidchartObjectId="QD6n8ffQyixK" id="FUiJqStSi06S3eD_Z6eS-36">
          <mxCell style="html=1;overflow=block;blockSpacing=1;whiteSpace=wrap;;whiteSpace=wrap;fontSize=16.7;fontColor=#333333;spacing=3.8;strokeColor=#5e5e5e;strokeOpacity=100;absoluteArcSize=1;arcSize=9;strokeWidth=2.3;rounded=1;sketch=1;" parent="1" vertex="1">
            <mxGeometry x="1432.5" y="280" width="120" height="45" as="geometry" />
          </mxCell>
        </UserObject>
        <UserObject label="SandPool" lucidchartObjectId="xK6nVe37aGVh" id="FUiJqStSi06S3eD_Z6eS-37">
          <mxCell style="html=1;overflow=block;blockSpacing=1;whiteSpace=wrap;;whiteSpace=wrap;fontSize=16.7;fontColor=#333333;spacing=3.8;strokeColor=#5e5e5e;strokeOpacity=100;absoluteArcSize=1;arcSize=9;strokeWidth=2.3;rounded=1;sketch=1;" parent="1" vertex="1">
            <mxGeometry x="1582.5" y="280" width="120" height="45" as="geometry" />
          </mxCell>
        </UserObject>
        <UserObject label="LeafFang" lucidchartObjectId="GL6nMM1_W.dq" id="FUiJqStSi06S3eD_Z6eS-38">
          <mxCell style="html=1;overflow=block;blockSpacing=1;whiteSpace=wrap;;whiteSpace=wrap;fontSize=16.7;fontColor=#333333;spacing=3.8;strokeColor=#5e5e5e;strokeOpacity=100;absoluteArcSize=1;arcSize=9;strokeWidth=2.3;rounded=1;sketch=1;" parent="1" vertex="1">
            <mxGeometry x="1807.5" y="365" width="120" height="45" as="geometry" />
          </mxCell>
        </UserObject>
        <UserObject label="MousePaw" lucidchartObjectId="0L6nMIO2sx.W" id="FUiJqStSi06S3eD_Z6eS-39">
          <mxCell style="html=1;overflow=block;blockSpacing=1;whiteSpace=wrap;;whiteSpace=wrap;fontSize=16.7;fontColor=#333333;spacing=3.8;strokeColor=#5e5e5e;strokeOpacity=100;absoluteArcSize=1;arcSize=9;strokeWidth=2.3;rounded=1;sketch=1;" parent="1" vertex="1">
            <mxGeometry x="1417.5" y="345" width="120" height="45" as="geometry" />
          </mxCell>
        </UserObject>
        <UserObject label="" lucidchartObjectId="dM6nYuE2K-EU" id="FUiJqStSi06S3eD_Z6eS-40">
          <mxCell style="html=1;jettySize=18;whiteSpace=wrap;fontSize=13;strokeColor=#b85450;strokeOpacity=100;strokeWidth=1.5;arcSize=12;edgeStyle=orthogonalEdgeStyle;startArrow=none;;endArrow=none;;exitX=1.009;exitY=0.5;exitPerimeter=0;entryX=-0.009;entryY=0.5;entryPerimeter=0;fillColor=#f8cecc;sketch=1;" parent="1" source="FUiJqStSi06S3eD_Z6eS-36" target="FUiJqStSi06S3eD_Z6eS-37" edge="1">
            <mxGeometry width="100" height="100" relative="1" as="geometry">
              <Array as="points" />
            </mxGeometry>
          </mxCell>
        </UserObject>
        <UserObject label="" lucidchartObjectId="yM6n69nNulBQ" id="FUiJqStSi06S3eD_Z6eS-41">
          <mxCell style="html=1;jettySize=18;whiteSpace=wrap;fontSize=13;strokeColor=#b85450;strokeOpacity=100;strokeWidth=1.5;arcSize=12;edgeStyle=orthogonalEdgeStyle;startArrow=none;;endArrow=none;;exitX=1.009;exitY=0.5;exitPerimeter=0;entryX=-0.009;entryY=0.5;entryPerimeter=0;fillColor=#f8cecc;sketch=1;" parent="1" source="FUiJqStSi06S3eD_Z6eS-34" edge="1">
            <mxGeometry width="100" height="100" relative="1" as="geometry">
              <Array as="points" />
              <mxPoint x="1806.42" y="387.5" as="targetPoint" />
            </mxGeometry>
          </mxCell>
        </UserObject>
        <UserObject label="" lucidchartObjectId="RM6nxCDNBZhi" id="FUiJqStSi06S3eD_Z6eS-42">
          <mxCell style="html=1;jettySize=18;whiteSpace=wrap;fontSize=13;strokeColor=#b85450;strokeOpacity=100;strokeWidth=1.5;arcSize=12;edgeStyle=orthogonalEdgeStyle;startArrow=none;;endArrow=none;;exitX=1.009;exitY=0.5;exitPerimeter=0;entryX=-0.009;entryY=0.5;entryPerimeter=0;fillColor=#f8cecc;sketch=1;" parent="1" source="FUiJqStSi06S3eD_Z6eS-32" target="FUiJqStSi06S3eD_Z6eS-39" edge="1">
            <mxGeometry width="100" height="100" relative="1" as="geometry">
              <Array as="points" />
            </mxGeometry>
          </mxCell>
        </UserObject>
        <UserObject label="TallEye" lucidchartObjectId="6N6nyGdsrVmk" id="FUiJqStSi06S3eD_Z6eS-43">
          <mxCell style="html=1;overflow=block;blockSpacing=1;whiteSpace=wrap;;whiteSpace=wrap;fontSize=16.7;fontColor=#333333;spacing=3.8;strokeColor=#5e5e5e;strokeOpacity=100;absoluteArcSize=1;arcSize=9;strokeWidth=2.3;rounded=1;sketch=1;" parent="1" vertex="1">
            <mxGeometry x="977.5" y="345" width="120" height="45" as="geometry" />
          </mxCell>
        </UserObject>
        <UserObject label="TawnyFoot" lucidchartObjectId="_N6nFeL8CYIC" id="FUiJqStSi06S3eD_Z6eS-44">
          <mxCell style="html=1;overflow=block;blockSpacing=1;whiteSpace=wrap;;whiteSpace=wrap;fontSize=16.7;fontColor=#333333;spacing=3.8;strokeColor=#5e5e5e;strokeOpacity=100;absoluteArcSize=1;arcSize=9;strokeWidth=2.3;rounded=1;sketch=1;" parent="1" vertex="1">
            <mxGeometry x="1127.5" y="345" width="120" height="45" as="geometry" />
          </mxCell>
        </UserObject>
        <UserObject label="" lucidchartObjectId="qO6np6Bd7pjw" id="FUiJqStSi06S3eD_Z6eS-45">
          <mxCell style="html=1;jettySize=18;whiteSpace=wrap;fontSize=13;strokeColor=#b85450;strokeOpacity=100;strokeWidth=1.5;arcSize=12;edgeStyle=orthogonalEdgeStyle;startArrow=none;;endArrow=none;;exitX=1.009;exitY=0.5;exitPerimeter=0;entryX=-0.009;entryY=0.5;entryPerimeter=0;fillColor=#f8cecc;sketch=1;" parent="1" source="FUiJqStSi06S3eD_Z6eS-43" target="FUiJqStSi06S3eD_Z6eS-44" edge="1">
            <mxGeometry width="100" height="100" relative="1" as="geometry">
              <Array as="points" />
            </mxGeometry>
          </mxCell>
        </UserObject>
        <UserObject label="BriarHiss" lucidchartObjectId="oT6n7k2YRqkz" id="FUiJqStSi06S3eD_Z6eS-47">
          <mxCell style="html=1;overflow=block;blockSpacing=1;whiteSpace=wrap;;whiteSpace=wrap;fontSize=16.7;fontColor=#333333;spacing=3.8;strokeColor=#5e5e5e;strokeOpacity=100;absoluteArcSize=1;arcSize=9;strokeWidth=2.3;rounded=1;sketch=1;" parent="1" vertex="1">
            <mxGeometry x="1357.5" y="445" width="120" height="45" as="geometry" />
          </mxCell>
        </UserObject>
        <UserObject label="SquirrelSwim" lucidchartObjectId="tT6nzAwxQzBk" id="FUiJqStSi06S3eD_Z6eS-48">
          <mxCell style="html=1;overflow=block;blockSpacing=1;whiteSpace=wrap;;whiteSpace=wrap;fontSize=16.7;fontColor=#333333;spacing=3.8;strokeColor=#5e5e5e;strokeOpacity=100;absoluteArcSize=1;arcSize=9;strokeWidth=2.3;rounded=1;sketch=1;" parent="1" vertex="1">
            <mxGeometry x="1657.5" y="445" width="120" height="45" as="geometry" />
          </mxCell>
        </UserObject>
        <UserObject label="ThistleClaws" lucidchartObjectId="HT6n_Y1mThux" id="FUiJqStSi06S3eD_Z6eS-49">
          <mxCell style="html=1;overflow=block;blockSpacing=1;whiteSpace=wrap;;whiteSpace=wrap;fontSize=16.7;fontColor=#333333;spacing=3.8;strokeColor=#5e5e5e;strokeOpacity=100;absoluteArcSize=1;arcSize=9;strokeWidth=2.3;rounded=1;sketch=1;" parent="1" vertex="1">
            <mxGeometry x="1507.5" y="445" width="120" height="45" as="geometry" />
          </mxCell>
        </UserObject>
        <UserObject label="" lucidchartObjectId="9T6nlAMiKmDT" id="FUiJqStSi06S3eD_Z6eS-50">
          <mxCell style="html=1;jettySize=18;whiteSpace=wrap;fontSize=13;strokeColor=#5E5E5E;strokeWidth=1.5;arcSize=12;edgeStyle=orthogonalEdgeStyle;startArrow=none;;endArrow=none;;exitX=0.5;exitY=-0.025;exitPerimeter=0;sketch=1;" parent="1" source="FUiJqStSi06S3eD_Z6eS-49" edge="1">
            <mxGeometry width="100" height="100" relative="1" as="geometry">
              <Array as="points">
                <mxPoint x="1567.5" y="405" />
                <mxPoint x="1567.5" y="405" />
              </Array>
              <mxPoint x="1568" y="303" as="targetPoint" />
            </mxGeometry>
          </mxCell>
        </UserObject>
        <UserObject label="" lucidchartObjectId="bU6nRvkBDQGP" id="FUiJqStSi06S3eD_Z6eS-51">
          <mxCell style="html=1;jettySize=18;whiteSpace=wrap;fontSize=13;strokeColor=#5E5E5E;strokeWidth=1.5;arcSize=12;edgeStyle=orthogonalEdgeStyle;startArrow=none;;endArrow=none;;exitX=-0.009;exitY=0.5;exitPerimeter=0;entryX=1.009;entryY=0.5;entryPerimeter=0;sketch=1;" parent="1" source="FUiJqStSi06S3eD_Z6eS-48" target="FUiJqStSi06S3eD_Z6eS-49" edge="1">
            <mxGeometry width="100" height="100" relative="1" as="geometry">
              <Array as="points" />
            </mxGeometry>
          </mxCell>
        </UserObject>
        <UserObject label="" lucidchartObjectId="eU6nitvqeQJ3" id="FUiJqStSi06S3eD_Z6eS-52">
          <mxCell style="html=1;jettySize=18;whiteSpace=wrap;fontSize=13;strokeColor=#5E5E5E;strokeWidth=1.5;arcSize=12;edgeStyle=orthogonalEdgeStyle;startArrow=none;;endArrow=none;;exitX=-0.009;exitY=0.5;exitPerimeter=0;entryX=1.009;entryY=0.5;entryPerimeter=0;sketch=1;" parent="1" source="FUiJqStSi06S3eD_Z6eS-49" target="FUiJqStSi06S3eD_Z6eS-47" edge="1">
            <mxGeometry width="100" height="100" relative="1" as="geometry">
              <Array as="points" />
            </mxGeometry>
          </mxCell>
        </UserObject>
        <UserObject label="" lucidchartObjectId="zV6nmgGL8G4V" id="FUiJqStSi06S3eD_Z6eS-53">
          <mxCell style="html=1;jettySize=18;whiteSpace=wrap;fontSize=13;strokeColor=#5E5E5E;strokeWidth=1.5;arcSize=12;edgeStyle=orthogonalEdgeStyle;startArrow=none;;endArrow=none;;sketch=1;" parent="1" edge="1">
            <mxGeometry width="100" height="100" relative="1" as="geometry">
              <Array as="points">
                <mxPoint x="1790" y="465" />
                <mxPoint x="1848" y="465" />
              </Array>
              <mxPoint x="1790" y="388" as="sourcePoint" />
              <mxPoint x="1847.5" y="545" as="targetPoint" />
            </mxGeometry>
          </mxCell>
        </UserObject>
        <UserObject label="" lucidchartObjectId="GKlow7b7QTN~" id="FUiJqStSi06S3eD_Z6eS-54">
          <mxCell style="html=1;jettySize=18;whiteSpace=wrap;fontSize=13;strokeColor=#b85450;strokeOpacity=100;strokeWidth=1.5;arcSize=12;edgeStyle=orthogonalEdgeStyle;startArrow=none;;endArrow=none;;exitX=-0.009;exitY=0.5;exitPerimeter=0;entryX=1.009;entryY=0.5;entryPerimeter=0;fillColor=#f8cecc;sketch=1;" parent="1" source="FUiJqStSi06S3eD_Z6eS-35" target="FUiJqStSi06S3eD_Z6eS-27" edge="1">
            <mxGeometry width="100" height="100" relative="1" as="geometry">
              <Array as="points" />
            </mxGeometry>
          </mxCell>
        </UserObject>
        <UserObject label="" lucidchartObjectId="4Qlo~swPg.hA" id="FUiJqStSi06S3eD_Z6eS-55">
          <mxCell style="html=1;jettySize=18;whiteSpace=wrap;fontSize=13;strokeColor=#b85450;strokeOpacity=100;strokeWidth=1.5;arcSize=12;edgeStyle=orthogonalEdgeStyle;startArrow=none;;endArrow=none;;exitX=1.009;exitY=0.5;exitPerimeter=0;entryX=-0.009;entryY=0.5;entryPerimeter=0;fillColor=#f8cecc;sketch=1;" parent="1" source="FUiJqStSi06S3eD_Z6eS-24" target="FUiJqStSi06S3eD_Z6eS-31" edge="1">
            <mxGeometry width="100" height="100" relative="1" as="geometry">
              <Array as="points" />
            </mxGeometry>
          </mxCell>
        </UserObject>
        <UserObject label="ScorchNight" lucidchartObjectId="vRlonehAEG~2" id="FUiJqStSi06S3eD_Z6eS-56">
          <mxCell style="html=1;overflow=block;blockSpacing=1;whiteSpace=wrap;;whiteSpace=wrap;fontSize=16.7;fontColor=#333333;spacing=3.8;strokeColor=#5e5e5e;strokeOpacity=100;absoluteArcSize=1;arcSize=9;strokeWidth=2.3;rounded=1;sketch=1;" parent="1" vertex="1">
            <mxGeometry x="677.5" y="520" width="120" height="45" as="geometry" />
          </mxCell>
        </UserObject>
        <UserObject label="" lucidchartObjectId="YSlojY~FfSWc" id="FUiJqStSi06S3eD_Z6eS-57">
          <mxCell style="html=1;jettySize=18;whiteSpace=wrap;fontSize=13;strokeColor=#5E5E5E;strokeWidth=1.5;arcSize=12;edgeStyle=orthogonalEdgeStyle;startArrow=none;;endArrow=none;;entryX=0.5;entryY=-0.025;entryPerimeter=0;sketch=1;" parent="1" edge="1">
            <mxGeometry width="100" height="100" relative="1" as="geometry">
              <Array as="points">
                <mxPoint x="517.5" y="405" />
                <mxPoint x="588.5" y="405" />
              </Array>
              <mxPoint x="517.5" y="365" as="sourcePoint" />
              <mxPoint x="588.4999999999998" y="519.9949999999999" as="targetPoint" />
            </mxGeometry>
          </mxCell>
        </UserObject>
        <UserObject label="StormingCall" lucidchartObjectId="g4loRliNZPfK" id="FUiJqStSi06S3eD_Z6eS-58">
          <mxCell style="html=1;overflow=block;blockSpacing=1;whiteSpace=wrap;;whiteSpace=wrap;fontSize=16.7;fontColor=#333333;spacing=3.8;strokeColor=#5e5e5e;strokeOpacity=100;absoluteArcSize=1;arcSize=9;strokeWidth=2.3;rounded=1;sketch=1;" parent="1" vertex="1">
            <mxGeometry x="827.5" y="520" width="120" height="45" as="geometry" />
          </mxCell>
        </UserObject>
        <UserObject label="" lucidchartObjectId="z4loe81sxhFM" id="FUiJqStSi06S3eD_Z6eS-59">
          <mxCell style="html=1;jettySize=18;whiteSpace=wrap;fontSize=13;strokeColor=#5E5E5E;strokeWidth=1.5;arcSize=12;edgeStyle=orthogonalEdgeStyle;startArrow=none;;endArrow=none;;exitX=-0.009;exitY=0.5;exitPerimeter=0;entryX=1.009;entryY=0.5;entryPerimeter=0;sketch=1;" parent="1" source="FUiJqStSi06S3eD_Z6eS-58" target="FUiJqStSi06S3eD_Z6eS-56" edge="1">
            <mxGeometry width="100" height="100" relative="1" as="geometry">
              <Array as="points" />
            </mxGeometry>
          </mxCell>
        </UserObject>
        <UserObject label="" lucidchartObjectId="C4lotgxP-2BV" id="FUiJqStSi06S3eD_Z6eS-60">
          <mxCell style="html=1;jettySize=18;whiteSpace=wrap;fontSize=13;strokeColor=#5E5E5E;strokeWidth=1.5;arcSize=12;edgeStyle=orthogonalEdgeStyle;startArrow=none;;endArrow=none;;noJump=0;backgroundOutline=0;metaEdit=0;fixDash=0;snapToPoint=1;sketch=1;" parent="1" edge="1">
            <mxGeometry width="100" height="100" relative="1" as="geometry">
              <Array as="points" />
              <mxPoint x="812.5" y="545" as="sourcePoint" />
              <mxPoint x="812.5" y="368" as="targetPoint" />
            </mxGeometry>
          </mxCell>
        </UserObject>
        <mxCell id="FUiJqStSi06S3eD_Z6eS-62" value="" style="endArrow=none;html=1;sketch=1;" parent="1" source="FUiJqStSi06S3eD_Z6eS-9" edge="1">
          <mxGeometry width="50" height="50" relative="1" as="geometry">
            <mxPoint x="1827.5" y="592.5" as="sourcePoint" />
            <mxPoint x="1857.5" y="543" as="targetPoint" />
          </mxGeometry>
        </mxCell>
        <mxCell id="FUiJqStSi06S3eD_Z6eS-63" style="edgeStyle=none;orthogonalLoop=1;jettySize=auto;html=1;exitX=1;exitY=0.5;exitDx=0;exitDy=0;entryX=0;entryY=0.5;entryDx=0;entryDy=0;endArrow=none;endFill=0;fillColor=#f8cecc;strokeColor=#b85450;sketch=1;" parent="1" source="FUiJqStSi06S3eD_Z6eS-64" target="FUiJqStSi06S3eD_Z6eS-65" edge="1">
          <mxGeometry relative="1" as="geometry" />
        </mxCell>
        <UserObject label="Hawk" lucidchartObjectId="GL6nMM1_W.dq" id="FUiJqStSi06S3eD_Z6eS-64">
          <mxCell style="html=1;overflow=block;blockSpacing=1;whiteSpace=wrap;;whiteSpace=wrap;fontSize=16.7;fontColor=#333333;spacing=3.8;strokeColor=#5e5e5e;strokeOpacity=100;absoluteArcSize=1;arcSize=9;strokeWidth=2.3;rounded=1;sketch=1;" parent="1" vertex="1">
            <mxGeometry x="1877.5" y="310" width="120" height="45" as="geometry" />
          </mxCell>
        </UserObject>
        <UserObject label="Seashell" lucidchartObjectId="GL6nMM1_W.dq" id="FUiJqStSi06S3eD_Z6eS-65">
          <mxCell style="html=1;overflow=block;blockSpacing=1;whiteSpace=wrap;;whiteSpace=wrap;fontSize=16.7;fontColor=#333333;spacing=3.8;strokeColor=#5e5e5e;strokeOpacity=100;absoluteArcSize=1;arcSize=9;strokeWidth=2.3;rounded=1;sketch=1;" parent="1" vertex="1">
            <mxGeometry x="2037.5" y="310" width="120" height="45" as="geometry" />
          </mxCell>
        </UserObject>
        <mxCell id="FUiJqStSi06S3eD_Z6eS-66" value="" style="endArrow=none;html=1;entryX=0;entryY=0.5;entryDx=0;entryDy=0;exitX=0.5;exitY=0;exitDx=0;exitDy=0;fillColor=#f8cecc;strokeColor=#b85450;sketch=1;" parent="1" source="FUiJqStSi06S3eD_Z6eS-9" target="FUiJqStSi06S3eD_Z6eS-12" edge="1">
          <mxGeometry width="50" height="50" relative="1" as="geometry">
            <mxPoint x="1887.5" y="495" as="sourcePoint" />
            <mxPoint x="1937.5" y="445" as="targetPoint" />
            <Array as="points">
              <mxPoint x="1767.5" y="495" />
              <mxPoint x="1937.5" y="495" />
              <mxPoint x="1937.5" y="403" />
            </Array>
          </mxGeometry>
        </mxCell>
        <UserObject label="FreezingBite&lt;br&gt;" lucidchartObjectId="lx6nJb_0bG_-" id="FUiJqStSi06S3eD_Z6eS-67">
          <mxCell style="html=1;overflow=block;blockSpacing=1;whiteSpace=wrap;;whiteSpace=wrap;fontSize=16.7;fontColor=#333333;spacing=3.8;strokeColor=#5e5e5e;strokeOpacity=100;absoluteArcSize=1;arcSize=9;strokeWidth=2.3;rounded=1;sketch=1;" parent="1" vertex="1">
            <mxGeometry x="827.5" y="435" width="120" height="45" as="geometry" />
          </mxCell>
        </UserObject>
        <mxCell id="FUiJqStSi06S3eD_Z6eS-69" value="" style="endArrow=none;html=1;rounded=0;exitX=1;exitY=0.5;exitDx=0;exitDy=0;entryX=0;entryY=0.5;entryDx=0;entryDy=0;fillColor=#f8cecc;strokeColor=#b85450;sketch=1;" parent="1" source="FUiJqStSi06S3eD_Z6eS-23" target="FUiJqStSi06S3eD_Z6eS-28" edge="1">
          <mxGeometry width="50" height="50" relative="1" as="geometry">
            <mxPoint x="320" y="420" as="sourcePoint" />
            <mxPoint x="370" y="370" as="targetPoint" />
          </mxGeometry>
        </mxCell>
        <mxCell id="FUiJqStSi06S3eD_Z6eS-70" value="" style="endArrow=none;html=1;exitX=0.5;exitY=0;exitDx=0;exitDy=0;sketch=1;" parent="1" source="FUiJqStSi06S3eD_Z6eS-33" edge="1">
          <mxGeometry width="50" height="50" relative="1" as="geometry">
            <mxPoint x="1390" y="690" as="sourcePoint" />
            <mxPoint x="1410" y="620" as="targetPoint" />
          </mxGeometry>
        </mxCell>
        <mxCell id="FUiJqStSi06S3eD_Z6eS-74" style="edgeStyle=orthogonalEdgeStyle;orthogonalLoop=1;jettySize=auto;html=1;exitX=0;exitY=0.5;exitDx=0;exitDy=0;endArrow=none;endFill=0;entryX=1;entryY=0.5;entryDx=0;entryDy=0;sketch=1;" parent="1" source="FUiJqStSi06S3eD_Z6eS-72" target="FUiJqStSi06S3eD_Z6eS-12" edge="1">
          <mxGeometry relative="1" as="geometry">
            <mxPoint x="2080" y="402.71428571428567" as="targetPoint" />
          </mxGeometry>
        </mxCell>
        <UserObject label="Lakes" lucidchartObjectId="AWwoFBo2OCs_" id="FUiJqStSi06S3eD_Z6eS-72">
          <mxCell style="html=1;overflow=block;blockSpacing=1;whiteSpace=wrap;;whiteSpace=wrap;fontSize=16.7;fontColor=#333333;spacing=3.8;strokeColor=#5e5e5e;strokeOpacity=100;absoluteArcSize=1;arcSize=9;strokeWidth=2.3;rounded=1;sketch=1;" parent="1" vertex="1">
            <mxGeometry x="2100" y="380" width="120" height="45" as="geometry" />
          </mxCell>
        </UserObject>
        <mxCell id="ZYdGl7vRl1zm1n0a2hFt-1" style="edgeStyle=orthogonalEdgeStyle;rounded=0;orthogonalLoop=1;jettySize=auto;html=1;exitX=0;exitY=0.5;exitDx=0;exitDy=0;entryX=1.006;entryY=0.489;entryDx=0;entryDy=0;entryPerimeter=0;endArrow=none;endFill=0;sketch=1;" parent="1" source="FUiJqStSi06S3eD_Z6eS-73" target="FUiJqStSi06S3eD_Z6eS-72" edge="1">
          <mxGeometry relative="1" as="geometry" />
        </mxCell>
        <UserObject label="Butterfly" lucidchartObjectId="AWwoFBo2OCs_" id="FUiJqStSi06S3eD_Z6eS-73">
          <mxCell style="html=1;overflow=block;blockSpacing=1;whiteSpace=wrap;;whiteSpace=wrap;fontSize=16.7;fontColor=#333333;spacing=3.8;strokeColor=#5e5e5e;strokeOpacity=100;absoluteArcSize=1;arcSize=9;strokeWidth=2.3;rounded=1;sketch=1;" parent="1" vertex="1">
            <mxGeometry x="2250" y="380" width="120" height="45" as="geometry" />
          </mxCell>
        </UserObject>
        <mxCell id="FUiJqStSi06S3eD_Z6eS-79" value="" style="endArrow=none;html=1;sketch=1;" parent="1" edge="1">
          <mxGeometry width="50" height="50" relative="1" as="geometry">
            <mxPoint x="1413" y="542" as="sourcePoint" />
            <mxPoint x="1402" y="368" as="targetPoint" />
            <Array as="points">
              <mxPoint x="1413" y="499" />
              <mxPoint x="1340" y="500" />
              <mxPoint x="1340" y="470" />
              <mxPoint x="1340" y="420" />
              <mxPoint x="1402" y="420" />
            </Array>
          </mxGeometry>
        </mxCell>
        <mxCell id="FWMpssXdKmYLNXRbYdAx-1" value="" style="endArrow=none;html=1;rounded=0;sketch=1;" parent="1" edge="1">
          <mxGeometry width="50" height="50" relative="1" as="geometry">
            <mxPoint x="1112" y="444" as="sourcePoint" />
            <mxPoint x="1112" y="368" as="targetPoint" />
          </mxGeometry>
        </mxCell>
      </root>
    </mxGraphModel>
  </diagram>
  <diagram name="MistClan" id="rLKN1sIKIIm2PLU79H0V">
    <mxGraphModel dx="782" dy="468" grid="1" gridSize="2" guides="1" tooltips="1" connect="1" arrows="1" fold="1" page="1" pageScale="1" pageWidth="1100" pageHeight="850" math="0" shadow="0">
      <root>
        <mxCell id="_-cHjgoWH2krjIYOZbRH-0" />
        <mxCell id="_-cHjgoWH2krjIYOZbRH-1" parent="_-cHjgoWH2krjIYOZbRH-0" />
        <UserObject label="Vixen" lucidchartObjectId="rNwogV_dCgLL" id="_-cHjgoWH2krjIYOZbRH-2">
          <mxCell style="html=1;overflow=block;blockSpacing=1;whiteSpace=wrap;;whiteSpace=wrap;fontSize=16.7;fontColor=#333333;spacing=3.8;strokeColor=#5e5e5e;strokeOpacity=100;absoluteArcSize=1;arcSize=9;strokeWidth=2.3;rounded=1;sketch=1;" parent="_-cHjgoWH2krjIYOZbRH-1" vertex="1">
            <mxGeometry x="227.5" y="520" width="120" height="45" as="geometry" />
          </mxCell>
        </UserObject>
        <UserObject label="SalmonRiver" lucidchartObjectId="HNwoF9cMgqQK" id="_-cHjgoWH2krjIYOZbRH-3">
          <mxCell style="html=1;overflow=block;blockSpacing=1;whiteSpace=wrap;;whiteSpace=wrap;fontSize=16.7;fontColor=#333333;spacing=3.8;strokeColor=#5e5e5e;strokeOpacity=100;absoluteArcSize=1;arcSize=9;strokeWidth=2.3;rounded=1;sketch=1;" parent="_-cHjgoWH2krjIYOZbRH-1" vertex="1">
            <mxGeometry x="377.5" y="520" width="120" height="45" as="geometry" />
          </mxCell>
        </UserObject>
        <UserObject label="SparkCall" lucidchartObjectId="INwogG9h2kRV" id="_-cHjgoWH2krjIYOZbRH-4">
          <mxCell style="html=1;overflow=block;blockSpacing=1;whiteSpace=wrap;;whiteSpace=wrap;fontSize=16.7;fontColor=#333333;spacing=3.8;strokeColor=#5e5e5e;strokeOpacity=100;absoluteArcSize=1;arcSize=9;strokeWidth=2.3;rounded=1;sketch=1;" parent="_-cHjgoWH2krjIYOZbRH-1" vertex="1">
            <mxGeometry x="527.5" y="520" width="120" height="45" as="geometry" />
          </mxCell>
        </UserObject>
        <UserObject label="RobinBelly" lucidchartObjectId="nOwo3FwqswKj" id="_-cHjgoWH2krjIYOZbRH-5">
          <mxCell style="html=1;overflow=block;blockSpacing=1;whiteSpace=wrap;;whiteSpace=wrap;fontSize=16.7;fontColor=#333333;spacing=3.8;strokeColor=#5e5e5e;strokeOpacity=100;absoluteArcSize=1;arcSize=9;strokeWidth=2.3;rounded=1;sketch=1;" parent="_-cHjgoWH2krjIYOZbRH-1" vertex="1">
            <mxGeometry x="1427.5" y="596" width="120" height="45" as="geometry" />
          </mxCell>
        </UserObject>
        <UserObject label="RippedScar" lucidchartObjectId="nOwo7iQaO23C" id="_-cHjgoWH2krjIYOZbRH-6">
          <mxCell style="html=1;overflow=block;blockSpacing=1;whiteSpace=wrap;;whiteSpace=wrap;fontSize=16.7;fontColor=#333333;spacing=3.8;strokeColor=#5e5e5e;strokeOpacity=100;absoluteArcSize=1;arcSize=9;strokeWidth=2.3;rounded=1;sketch=1;" parent="_-cHjgoWH2krjIYOZbRH-1" vertex="1">
            <mxGeometry x="1052.5" y="445" width="120" height="45" as="geometry" />
          </mxCell>
        </UserObject>
        <UserObject label="LightLeap" lucidchartObjectId="nOwo-KONdXus" id="_-cHjgoWH2krjIYOZbRH-7">
          <mxCell style="html=1;overflow=block;blockSpacing=1;whiteSpace=wrap;;whiteSpace=wrap;fontSize=16.7;fontColor=#333333;spacing=3.8;strokeColor=#5e5e5e;strokeOpacity=100;absoluteArcSize=1;arcSize=9;strokeWidth=2.3;rounded=1;sketch=1;" parent="_-cHjgoWH2krjIYOZbRH-1" vertex="1">
            <mxGeometry x="977.5" y="520" width="120" height="45" as="geometry" />
          </mxCell>
        </UserObject>
        <mxCell id="_-cHjgoWH2krjIYOZbRH-8" style="edgeStyle=orthogonalEdgeStyle;orthogonalLoop=1;jettySize=auto;html=1;exitX=1;exitY=0.5;exitDx=0;exitDy=0;entryX=0;entryY=0.5;entryDx=0;entryDy=0;endArrow=none;endFill=0;sketch=1;" parent="_-cHjgoWH2krjIYOZbRH-1" source="_-cHjgoWH2krjIYOZbRH-9" target="_-cHjgoWH2krjIYOZbRH-11" edge="1">
          <mxGeometry relative="1" as="geometry" />
        </mxCell>
        <UserObject label="LakeRose" lucidchartObjectId="nOwoG6fCtJm5" id="_-cHjgoWH2krjIYOZbRH-9">
          <mxCell style="html=1;overflow=block;blockSpacing=1;whiteSpace=wrap;;whiteSpace=wrap;fontSize=16.7;fontColor=#333333;spacing=3.8;strokeColor=#5e5e5e;strokeOpacity=100;absoluteArcSize=1;arcSize=9;strokeWidth=2.3;rounded=1;sketch=1;" parent="_-cHjgoWH2krjIYOZbRH-1" vertex="1">
            <mxGeometry x="1277.5" y="520" width="120" height="45" as="geometry" />
          </mxCell>
        </UserObject>
        <UserObject label="TigerLeap" lucidchartObjectId="~UwoI_.Jccfk" id="_-cHjgoWH2krjIYOZbRH-10">
          <mxCell style="html=1;overflow=block;blockSpacing=1;whiteSpace=wrap;;whiteSpace=wrap;fontSize=16.7;fontColor=#333333;spacing=3.8;strokeColor=#5e5e5e;strokeOpacity=100;absoluteArcSize=1;arcSize=9;strokeWidth=2.3;rounded=1;sketch=1;" parent="_-cHjgoWH2krjIYOZbRH-1" vertex="1">
            <mxGeometry x="1707.5" y="520" width="120" height="45" as="geometry" />
          </mxCell>
        </UserObject>
        <UserObject label="CricketMist" lucidchartObjectId="~UwojIPjVIOI" id="_-cHjgoWH2krjIYOZbRH-11">
          <mxCell style="html=1;overflow=block;blockSpacing=1;whiteSpace=wrap;;whiteSpace=wrap;fontSize=16.7;fontColor=#333333;spacing=3.8;strokeColor=#5e5e5e;strokeOpacity=100;absoluteArcSize=1;arcSize=9;strokeWidth=2.3;rounded=1;sketch=1;" parent="_-cHjgoWH2krjIYOZbRH-1" vertex="1">
            <mxGeometry x="1427.5" y="520" width="120" height="45" as="geometry" />
          </mxCell>
        </UserObject>
        <mxCell id="_-cHjgoWH2krjIYOZbRH-12" style="edgeStyle=none;orthogonalLoop=1;jettySize=auto;html=1;exitX=0.5;exitY=0;exitDx=0;exitDy=0;endArrow=none;endFill=0;sketch=1;" parent="_-cHjgoWH2krjIYOZbRH-1" source="_-cHjgoWH2krjIYOZbRH-70" edge="1">
          <mxGeometry relative="1" as="geometry">
            <mxPoint x="2018" y="333" as="targetPoint" />
            <Array as="points">
              <mxPoint x="2160" y="360" />
              <mxPoint x="2018" y="360" />
            </Array>
          </mxGeometry>
        </mxCell>
        <UserObject label="FernFate" lucidchartObjectId="AWwoFBo2OCs_" id="_-cHjgoWH2krjIYOZbRH-13">
          <mxCell style="html=1;overflow=block;blockSpacing=1;whiteSpace=wrap;;whiteSpace=wrap;fontSize=16.7;fontColor=#333333;spacing=3.8;strokeColor=#5e5e5e;strokeOpacity=100;absoluteArcSize=1;arcSize=9;strokeWidth=2.3;rounded=1;sketch=1;" parent="_-cHjgoWH2krjIYOZbRH-1" vertex="1">
            <mxGeometry x="1957.5" y="380" width="120" height="45" as="geometry" />
          </mxCell>
        </UserObject>
        <UserObject label="WishTwist" lucidchartObjectId="AWwozbQCYoxc" id="_-cHjgoWH2krjIYOZbRH-14">
          <mxCell style="html=1;overflow=block;blockSpacing=1;whiteSpace=wrap;;whiteSpace=wrap;fontSize=16.7;fontColor=#333333;spacing=3.8;strokeColor=#5e5e5e;strokeOpacity=100;absoluteArcSize=1;arcSize=9;strokeWidth=2.3;rounded=1;sketch=1;" parent="_-cHjgoWH2krjIYOZbRH-1" vertex="1">
            <mxGeometry x="1857.5" y="520" width="120" height="45" as="geometry" />
          </mxCell>
        </UserObject>
        <UserObject label="" lucidchartObjectId="TXwo7eGYLWNq" id="_-cHjgoWH2krjIYOZbRH-15">
          <mxCell style="html=1;jettySize=18;whiteSpace=wrap;fontSize=13;strokeColor=#b85450;strokeOpacity=100;strokeWidth=1.5;arcSize=12;edgeStyle=orthogonalEdgeStyle;startArrow=none;;endArrow=none;;exitX=-0.009;exitY=0.5;exitPerimeter=0;entryX=1.009;entryY=0.5;entryPerimeter=0;fillColor=#f8cecc;sketch=1;" parent="_-cHjgoWH2krjIYOZbRH-1" target="_-cHjgoWH2krjIYOZbRH-6" edge="1">
            <mxGeometry width="100" height="100" relative="1" as="geometry">
              <Array as="points" />
              <mxPoint x="1201.42" y="467.5" as="sourcePoint" />
            </mxGeometry>
          </mxCell>
        </UserObject>
        <UserObject label="" lucidchartObjectId="E7wo4Ei~iOmB" id="_-cHjgoWH2krjIYOZbRH-16">
          <mxCell style="html=1;jettySize=18;whiteSpace=wrap;fontSize=13;strokeColor=#5E5E5E;strokeWidth=1.5;arcSize=12;edgeStyle=orthogonalEdgeStyle;startArrow=none;;endArrow=none;;exitX=0.5;exitY=-0.025;exitPerimeter=0;sketch=1;" parent="_-cHjgoWH2krjIYOZbRH-1" source="_-cHjgoWH2krjIYOZbRH-18" edge="1">
            <mxGeometry width="100" height="100" relative="1" as="geometry">
              <Array as="points" />
              <mxPoint x="1187.5" y="468" as="targetPoint" />
            </mxGeometry>
          </mxCell>
        </UserObject>
        <UserObject label="BloomStep" lucidchartObjectId="v8woDU3B5V1E" id="_-cHjgoWH2krjIYOZbRH-17">
          <mxCell style="html=1;overflow=block;blockSpacing=1;whiteSpace=wrap;;whiteSpace=wrap;fontSize=16.7;fontColor=#333333;spacing=3.8;strokeColor=#5e5e5e;strokeOpacity=100;absoluteArcSize=1;arcSize=9;strokeWidth=2.3;rounded=1;sketch=1;" parent="_-cHjgoWH2krjIYOZbRH-1" vertex="1">
            <mxGeometry x="977.5" y="595" width="120" height="45" as="geometry" />
          </mxCell>
        </UserObject>
        <UserObject label="ThornFate" lucidchartObjectId="Q8wovV4.A276" id="_-cHjgoWH2krjIYOZbRH-18">
          <mxCell style="html=1;overflow=block;blockSpacing=1;whiteSpace=wrap;;whiteSpace=wrap;fontSize=16.7;fontColor=#333333;spacing=3.8;strokeColor=#5e5e5e;strokeOpacity=100;absoluteArcSize=1;arcSize=9;strokeWidth=2.3;rounded=1;sketch=1;" parent="_-cHjgoWH2krjIYOZbRH-1" vertex="1">
            <mxGeometry x="1127.5" y="595" width="120" height="45" as="geometry" />
          </mxCell>
        </UserObject>
        <UserObject label="MapleFreckle" lucidchartObjectId="T8wokQpCtD0_" id="_-cHjgoWH2krjIYOZbRH-19">
          <mxCell style="html=1;overflow=block;blockSpacing=1;whiteSpace=wrap;;whiteSpace=wrap;fontSize=16.7;fontColor=#333333;spacing=3.8;strokeColor=#5e5e5e;strokeOpacity=100;absoluteArcSize=1;arcSize=9;strokeWidth=2.3;rounded=1;sketch=1;" parent="_-cHjgoWH2krjIYOZbRH-1" vertex="1">
            <mxGeometry x="1277.5" y="594" width="120" height="48" as="geometry" />
          </mxCell>
        </UserObject>
        <UserObject label="" lucidchartObjectId="Gzyo0qhNV2Ji" id="_-cHjgoWH2krjIYOZbRH-20">
          <mxCell style="html=1;jettySize=18;whiteSpace=wrap;fontSize=13;strokeColor=#5E5E5E;strokeWidth=1.5;arcSize=12;edgeStyle=orthogonalEdgeStyle;startArrow=none;;endArrow=none;;exitX=-0.009;exitY=0.5;exitPerimeter=0;entryX=1.009;entryY=0.5;entryPerimeter=0;sketch=1;" parent="_-cHjgoWH2krjIYOZbRH-1" source="_-cHjgoWH2krjIYOZbRH-19" target="_-cHjgoWH2krjIYOZbRH-18" edge="1">
            <mxGeometry width="100" height="100" relative="1" as="geometry">
              <Array as="points" />
            </mxGeometry>
          </mxCell>
        </UserObject>
        <UserObject label="" lucidchartObjectId="Jzyo0tXkxQN0" id="_-cHjgoWH2krjIYOZbRH-21">
          <mxCell style="html=1;jettySize=18;whiteSpace=wrap;fontSize=13;strokeColor=#5E5E5E;strokeWidth=1.5;arcSize=12;edgeStyle=orthogonalEdgeStyle;startArrow=none;;endArrow=none;;exitX=-0.009;exitY=0.5;exitPerimeter=0;entryX=1.009;entryY=0.5;entryPerimeter=0;sketch=1;" parent="_-cHjgoWH2krjIYOZbRH-1" source="_-cHjgoWH2krjIYOZbRH-18" target="_-cHjgoWH2krjIYOZbRH-17" edge="1">
            <mxGeometry width="100" height="100" relative="1" as="geometry">
              <Array as="points" />
            </mxGeometry>
          </mxCell>
        </UserObject>
        <UserObject label="" lucidchartObjectId="7HyoYzM~DbjK" id="_-cHjgoWH2krjIYOZbRH-22">
          <mxCell style="html=1;jettySize=18;whiteSpace=wrap;fontSize=13;strokeColor=#b85450;strokeOpacity=100;strokeWidth=1.5;arcSize=12;edgeStyle=orthogonalEdgeStyle;startArrow=none;;endArrow=none;;exitX=-0.009;exitY=0.5;exitPerimeter=0;entryX=1.009;entryY=0.526;entryPerimeter=0;fillColor=#f8cecc;sketch=1;" parent="_-cHjgoWH2krjIYOZbRH-1" source="_-cHjgoWH2krjIYOZbRH-5" target="_-cHjgoWH2krjIYOZbRH-19" edge="1">
            <mxGeometry width="100" height="100" relative="1" as="geometry">
              <Array as="points" />
            </mxGeometry>
          </mxCell>
        </UserObject>
        <UserObject label="MistFate" lucidchartObjectId="U62nv5oN26xm" id="_-cHjgoWH2krjIYOZbRH-23">
          <mxCell style="html=1;overflow=block;blockSpacing=1;whiteSpace=wrap;;whiteSpace=wrap;fontSize=16.7;fontColor=#333333;spacing=3.8;strokeColor=#5e5e5e;strokeOpacity=100;absoluteArcSize=1;arcSize=9;strokeWidth=2.3;rounded=1;sketch=1;" parent="_-cHjgoWH2krjIYOZbRH-1" vertex="1">
            <mxGeometry x="90" y="345" width="120" height="45" as="geometry" />
          </mxCell>
        </UserObject>
        <UserObject label="RootFate" lucidchartObjectId="6w6n-J9yklSA" id="_-cHjgoWH2krjIYOZbRH-24">
          <mxCell style="html=1;overflow=block;blockSpacing=1;whiteSpace=wrap;;whiteSpace=wrap;fontSize=16.7;fontColor=#333333;spacing=3.8;strokeColor=#5e5e5e;strokeOpacity=100;absoluteArcSize=1;arcSize=9;strokeWidth=2.3;rounded=1;sketch=1;" parent="_-cHjgoWH2krjIYOZbRH-1" vertex="1">
            <mxGeometry x="385" y="345" width="120" height="45" as="geometry" />
          </mxCell>
        </UserObject>
        <mxCell id="_-cHjgoWH2krjIYOZbRH-25" style="edgeStyle=none;orthogonalLoop=1;jettySize=auto;html=1;exitX=0;exitY=0.5;exitDx=0;exitDy=0;endArrow=none;endFill=0;fillColor=#f8cecc;strokeColor=#b85450;sketch=1;" parent="_-cHjgoWH2krjIYOZbRH-1" source="_-cHjgoWH2krjIYOZbRH-26" target="_-cHjgoWH2krjIYOZbRH-29" edge="1">
          <mxGeometry relative="1" as="geometry" />
        </mxCell>
        <UserObject label="BlueThroat" lucidchartObjectId="9w6nF3neg0Av" id="_-cHjgoWH2krjIYOZbRH-26">
          <mxCell style="html=1;overflow=block;blockSpacing=1;whiteSpace=wrap;;whiteSpace=wrap;fontSize=16.7;fontColor=#333333;spacing=3.8;strokeColor=#5e5e5e;strokeOpacity=100;absoluteArcSize=1;arcSize=9;strokeWidth=2.3;rounded=1;sketch=1;" parent="_-cHjgoWH2krjIYOZbRH-1" vertex="1">
            <mxGeometry x="1040" y="280" width="120" height="45" as="geometry" />
          </mxCell>
        </UserObject>
        <UserObject label="RedSpot" lucidchartObjectId="ix6n19~cwBaz" id="_-cHjgoWH2krjIYOZbRH-27">
          <mxCell style="html=1;overflow=block;blockSpacing=1;whiteSpace=wrap;;whiteSpace=wrap;fontSize=16.7;fontColor=#333333;spacing=3.8;strokeColor=#5e5e5e;strokeOpacity=100;absoluteArcSize=1;arcSize=9;strokeWidth=2.3;rounded=1;sketch=1;" parent="_-cHjgoWH2krjIYOZbRH-1" vertex="1">
            <mxGeometry x="677.5" y="345" width="120" height="45" as="geometry" />
          </mxCell>
        </UserObject>
        <UserObject label="IcyFur" lucidchartObjectId="lx6nJb_0bG_-" id="_-cHjgoWH2krjIYOZbRH-28">
          <mxCell style="html=1;overflow=block;blockSpacing=1;whiteSpace=wrap;;whiteSpace=wrap;fontSize=16.7;fontColor=#333333;spacing=3.8;strokeColor=#5e5e5e;strokeOpacity=100;absoluteArcSize=1;arcSize=9;strokeWidth=2.3;rounded=1;sketch=1;" parent="_-cHjgoWH2krjIYOZbRH-1" vertex="1">
            <mxGeometry x="240" y="345" width="120" height="45" as="geometry" />
          </mxCell>
        </UserObject>
        <UserObject label="AmberSong" lucidchartObjectId="nx6n3Eqgzo.t" id="_-cHjgoWH2krjIYOZbRH-29">
          <mxCell style="html=1;overflow=block;blockSpacing=1;whiteSpace=wrap;;whiteSpace=wrap;fontSize=16.7;fontColor=#333333;spacing=3.8;strokeColor=#5e5e5e;strokeOpacity=100;absoluteArcSize=1;arcSize=9;strokeWidth=2.3;rounded=1;sketch=1;" parent="_-cHjgoWH2krjIYOZbRH-1" vertex="1">
            <mxGeometry x="880" y="280" width="120" height="45" as="geometry" />
          </mxCell>
        </UserObject>
        <UserObject label="FernPuddle(Step)" lucidchartObjectId="jC6nwOgTyKPv" id="_-cHjgoWH2krjIYOZbRH-30">
          <mxCell style="html=1;overflow=block;blockSpacing=1;whiteSpace=wrap;;whiteSpace=wrap;fontSize=16.7;fontColor=#333333;spacing=3.8;strokeColor=#5e5e5e;strokeOpacity=100;absoluteArcSize=1;arcSize=9;strokeWidth=2.3;rounded=1;sketch=1;" parent="_-cHjgoWH2krjIYOZbRH-1" vertex="1">
            <mxGeometry x="1202.5" y="445" width="120" height="45" as="geometry" />
          </mxCell>
        </UserObject>
        <UserObject label="WetClaw" lucidchartObjectId="sC6n0QGDRm1p" id="_-cHjgoWH2krjIYOZbRH-31">
          <mxCell style="html=1;overflow=block;blockSpacing=1;whiteSpace=wrap;;whiteSpace=wrap;fontSize=16.7;fontColor=#333333;spacing=3.8;strokeColor=#5e5e5e;strokeOpacity=100;absoluteArcSize=1;arcSize=9;strokeWidth=2.3;rounded=1;sketch=1;" parent="_-cHjgoWH2krjIYOZbRH-1" vertex="1">
            <mxGeometry x="535" y="345" width="120" height="45" as="geometry" />
          </mxCell>
        </UserObject>
        <UserObject label="PineBlaze" lucidchartObjectId="uC6ns7wwrMkW" id="_-cHjgoWH2krjIYOZbRH-32">
          <mxCell style="html=1;overflow=block;blockSpacing=1;whiteSpace=wrap;;whiteSpace=wrap;fontSize=16.7;fontColor=#333333;spacing=3.8;strokeColor=#5e5e5e;strokeOpacity=100;absoluteArcSize=1;arcSize=9;strokeWidth=2.3;rounded=1;sketch=1;" parent="_-cHjgoWH2krjIYOZbRH-1" vertex="1">
            <mxGeometry x="1267.5" y="345" width="120" height="45" as="geometry" />
          </mxCell>
        </UserObject>
        <UserObject label="FloralHeart" lucidchartObjectId="xC6nqglZxt7i" id="_-cHjgoWH2krjIYOZbRH-33">
          <mxCell style="html=1;overflow=block;blockSpacing=1;whiteSpace=wrap;;whiteSpace=wrap;fontSize=16.7;fontColor=#333333;spacing=3.8;strokeColor=#5e5e5e;strokeOpacity=100;absoluteArcSize=1;arcSize=9;strokeWidth=2.3;rounded=1;sketch=1;" parent="_-cHjgoWH2krjIYOZbRH-1" vertex="1">
            <mxGeometry x="1350" y="675" width="120" height="45" as="geometry" />
          </mxCell>
        </UserObject>
        <UserObject label="FlameFace" lucidchartObjectId="aD6n6iyjvHGV" id="_-cHjgoWH2krjIYOZbRH-34">
          <mxCell style="html=1;overflow=block;blockSpacing=1;whiteSpace=wrap;;whiteSpace=wrap;fontSize=16.7;fontColor=#333333;spacing=3.8;strokeColor=#5e5e5e;strokeOpacity=100;absoluteArcSize=1;arcSize=9;strokeWidth=2.3;rounded=1;sketch=1;" parent="_-cHjgoWH2krjIYOZbRH-1" vertex="1">
            <mxGeometry x="1657.5" y="365" width="120" height="45" as="geometry" />
          </mxCell>
        </UserObject>
        <UserObject label="SandFeather" lucidchartObjectId="DD6n1941-2t5" id="_-cHjgoWH2krjIYOZbRH-35">
          <mxCell style="html=1;overflow=block;blockSpacing=1;whiteSpace=wrap;;whiteSpace=wrap;fontSize=16.7;fontColor=#333333;spacing=3.8;strokeColor=#5e5e5e;strokeOpacity=100;absoluteArcSize=1;arcSize=9;strokeWidth=2.3;rounded=1;sketch=1;" parent="_-cHjgoWH2krjIYOZbRH-1" vertex="1">
            <mxGeometry x="827.5" y="345" width="120" height="45" as="geometry" />
          </mxCell>
        </UserObject>
        <UserObject label="BriarFoot" lucidchartObjectId="QD6n8ffQyixK" id="_-cHjgoWH2krjIYOZbRH-36">
          <mxCell style="html=1;overflow=block;blockSpacing=1;whiteSpace=wrap;;whiteSpace=wrap;fontSize=16.7;fontColor=#333333;spacing=3.8;strokeColor=#5e5e5e;strokeOpacity=100;absoluteArcSize=1;arcSize=9;strokeWidth=2.3;rounded=1;sketch=1;" parent="_-cHjgoWH2krjIYOZbRH-1" vertex="1">
            <mxGeometry x="1432.5" y="280" width="120" height="45" as="geometry" />
          </mxCell>
        </UserObject>
        <UserObject label="SandPool" lucidchartObjectId="xK6nVe37aGVh" id="_-cHjgoWH2krjIYOZbRH-37">
          <mxCell style="html=1;overflow=block;blockSpacing=1;whiteSpace=wrap;;whiteSpace=wrap;fontSize=16.7;fontColor=#333333;spacing=3.8;strokeColor=#5e5e5e;strokeOpacity=100;absoluteArcSize=1;arcSize=9;strokeWidth=2.3;rounded=1;sketch=1;" parent="_-cHjgoWH2krjIYOZbRH-1" vertex="1">
            <mxGeometry x="1582.5" y="280" width="120" height="45" as="geometry" />
          </mxCell>
        </UserObject>
        <UserObject label="LeafFang" lucidchartObjectId="GL6nMM1_W.dq" id="_-cHjgoWH2krjIYOZbRH-38">
          <mxCell style="html=1;overflow=block;blockSpacing=1;whiteSpace=wrap;;whiteSpace=wrap;fontSize=16.7;fontColor=#333333;spacing=3.8;strokeColor=#5e5e5e;strokeOpacity=100;absoluteArcSize=1;arcSize=9;strokeWidth=2.3;rounded=1;sketch=1;" parent="_-cHjgoWH2krjIYOZbRH-1" vertex="1">
            <mxGeometry x="1807.5" y="365" width="120" height="45" as="geometry" />
          </mxCell>
        </UserObject>
        <UserObject label="MousePaw" lucidchartObjectId="0L6nMIO2sx.W" id="_-cHjgoWH2krjIYOZbRH-39">
          <mxCell style="html=1;overflow=block;blockSpacing=1;whiteSpace=wrap;;whiteSpace=wrap;fontSize=16.7;fontColor=#333333;spacing=3.8;strokeColor=#5e5e5e;strokeOpacity=100;absoluteArcSize=1;arcSize=9;strokeWidth=2.3;rounded=1;sketch=1;" parent="_-cHjgoWH2krjIYOZbRH-1" vertex="1">
            <mxGeometry x="1417.5" y="345" width="120" height="45" as="geometry" />
          </mxCell>
        </UserObject>
        <UserObject label="" lucidchartObjectId="dM6nYuE2K-EU" id="_-cHjgoWH2krjIYOZbRH-40">
          <mxCell style="html=1;jettySize=18;whiteSpace=wrap;fontSize=13;strokeColor=#b85450;strokeOpacity=100;strokeWidth=1.5;arcSize=12;edgeStyle=orthogonalEdgeStyle;startArrow=none;;endArrow=none;;exitX=1.009;exitY=0.5;exitPerimeter=0;entryX=-0.009;entryY=0.5;entryPerimeter=0;fillColor=#f8cecc;sketch=1;" parent="_-cHjgoWH2krjIYOZbRH-1" source="_-cHjgoWH2krjIYOZbRH-36" target="_-cHjgoWH2krjIYOZbRH-37" edge="1">
            <mxGeometry width="100" height="100" relative="1" as="geometry">
              <Array as="points" />
            </mxGeometry>
          </mxCell>
        </UserObject>
        <UserObject label="" lucidchartObjectId="yM6n69nNulBQ" id="_-cHjgoWH2krjIYOZbRH-41">
          <mxCell style="html=1;jettySize=18;whiteSpace=wrap;fontSize=13;strokeColor=#b85450;strokeOpacity=100;strokeWidth=1.5;arcSize=12;edgeStyle=orthogonalEdgeStyle;startArrow=none;;endArrow=none;;exitX=1.009;exitY=0.5;exitPerimeter=0;entryX=-0.009;entryY=0.5;entryPerimeter=0;fillColor=#f8cecc;sketch=1;" parent="_-cHjgoWH2krjIYOZbRH-1" source="_-cHjgoWH2krjIYOZbRH-34" edge="1">
            <mxGeometry width="100" height="100" relative="1" as="geometry">
              <Array as="points" />
              <mxPoint x="1806.42" y="387.5" as="targetPoint" />
            </mxGeometry>
          </mxCell>
        </UserObject>
        <UserObject label="" lucidchartObjectId="RM6nxCDNBZhi" id="_-cHjgoWH2krjIYOZbRH-42">
          <mxCell style="html=1;jettySize=18;whiteSpace=wrap;fontSize=13;strokeColor=#b85450;strokeOpacity=100;strokeWidth=1.5;arcSize=12;edgeStyle=orthogonalEdgeStyle;startArrow=none;;endArrow=none;;exitX=1.009;exitY=0.5;exitPerimeter=0;entryX=-0.009;entryY=0.5;entryPerimeter=0;fillColor=#f8cecc;sketch=1;" parent="_-cHjgoWH2krjIYOZbRH-1" source="_-cHjgoWH2krjIYOZbRH-32" target="_-cHjgoWH2krjIYOZbRH-39" edge="1">
            <mxGeometry width="100" height="100" relative="1" as="geometry">
              <Array as="points" />
            </mxGeometry>
          </mxCell>
        </UserObject>
        <UserObject label="TallEye" lucidchartObjectId="6N6nyGdsrVmk" id="_-cHjgoWH2krjIYOZbRH-43">
          <mxCell style="html=1;overflow=block;blockSpacing=1;whiteSpace=wrap;;whiteSpace=wrap;fontSize=16.7;fontColor=#333333;spacing=3.8;strokeColor=#5e5e5e;strokeOpacity=100;absoluteArcSize=1;arcSize=9;strokeWidth=2.3;rounded=1;sketch=1;" parent="_-cHjgoWH2krjIYOZbRH-1" vertex="1">
            <mxGeometry x="977.5" y="345" width="120" height="45" as="geometry" />
          </mxCell>
        </UserObject>
        <UserObject label="TawnyFoot" lucidchartObjectId="_N6nFeL8CYIC" id="_-cHjgoWH2krjIYOZbRH-44">
          <mxCell style="html=1;overflow=block;blockSpacing=1;whiteSpace=wrap;;whiteSpace=wrap;fontSize=16.7;fontColor=#333333;spacing=3.8;strokeColor=#5e5e5e;strokeOpacity=100;absoluteArcSize=1;arcSize=9;strokeWidth=2.3;rounded=1;sketch=1;" parent="_-cHjgoWH2krjIYOZbRH-1" vertex="1">
            <mxGeometry x="1127.5" y="345" width="120" height="45" as="geometry" />
          </mxCell>
        </UserObject>
        <UserObject label="" lucidchartObjectId="qO6np6Bd7pjw" id="_-cHjgoWH2krjIYOZbRH-45">
          <mxCell style="html=1;jettySize=18;whiteSpace=wrap;fontSize=13;strokeColor=#b85450;strokeOpacity=100;strokeWidth=1.5;arcSize=12;edgeStyle=orthogonalEdgeStyle;startArrow=none;;endArrow=none;;exitX=1.009;exitY=0.5;exitPerimeter=0;entryX=-0.009;entryY=0.5;entryPerimeter=0;fillColor=#f8cecc;sketch=1;" parent="_-cHjgoWH2krjIYOZbRH-1" source="_-cHjgoWH2krjIYOZbRH-43" target="_-cHjgoWH2krjIYOZbRH-44" edge="1">
            <mxGeometry width="100" height="100" relative="1" as="geometry">
              <Array as="points" />
            </mxGeometry>
          </mxCell>
        </UserObject>
        <UserObject label="" lucidchartObjectId="mR6nr4ofL-PY" id="_-cHjgoWH2krjIYOZbRH-46">
          <mxCell style="html=1;jettySize=18;whiteSpace=wrap;fontSize=13;strokeColor=#5E5E5E;strokeWidth=1.5;arcSize=12;edgeStyle=orthogonalEdgeStyle;startArrow=none;;endArrow=none;;entryX=0.5;entryY=0;entryDx=0;entryDy=0;sketch=1;" parent="_-cHjgoWH2krjIYOZbRH-1" target="_-cHjgoWH2krjIYOZbRH-6" edge="1">
            <mxGeometry width="100" height="100" relative="1" as="geometry">
              <Array as="points">
                <mxPoint x="1111.5" y="445" />
              </Array>
              <mxPoint x="1112.5" y="368" as="sourcePoint" />
              <mxPoint x="1111.42" y="448.8749999999998" as="targetPoint" />
            </mxGeometry>
          </mxCell>
        </UserObject>
        <UserObject label="BriarHiss" lucidchartObjectId="oT6n7k2YRqkz" id="_-cHjgoWH2krjIYOZbRH-47">
          <mxCell style="html=1;overflow=block;blockSpacing=1;whiteSpace=wrap;;whiteSpace=wrap;fontSize=16.7;fontColor=#333333;spacing=3.8;strokeColor=#5e5e5e;strokeOpacity=100;absoluteArcSize=1;arcSize=9;strokeWidth=2.3;rounded=1;sketch=1;" parent="_-cHjgoWH2krjIYOZbRH-1" vertex="1">
            <mxGeometry x="1357.5" y="445" width="120" height="45" as="geometry" />
          </mxCell>
        </UserObject>
        <UserObject label="SquirrelSwim" lucidchartObjectId="tT6nzAwxQzBk" id="_-cHjgoWH2krjIYOZbRH-48">
          <mxCell style="html=1;overflow=block;blockSpacing=1;whiteSpace=wrap;;whiteSpace=wrap;fontSize=16.7;fontColor=#333333;spacing=3.8;strokeColor=#5e5e5e;strokeOpacity=100;absoluteArcSize=1;arcSize=9;strokeWidth=2.3;rounded=1;sketch=1;" parent="_-cHjgoWH2krjIYOZbRH-1" vertex="1">
            <mxGeometry x="1657.5" y="445" width="120" height="45" as="geometry" />
          </mxCell>
        </UserObject>
        <UserObject label="ThistleClaws" lucidchartObjectId="HT6n_Y1mThux" id="_-cHjgoWH2krjIYOZbRH-49">
          <mxCell style="html=1;overflow=block;blockSpacing=1;whiteSpace=wrap;;whiteSpace=wrap;fontSize=16.7;fontColor=#333333;spacing=3.8;strokeColor=#5e5e5e;strokeOpacity=100;absoluteArcSize=1;arcSize=9;strokeWidth=2.3;rounded=1;sketch=1;" parent="_-cHjgoWH2krjIYOZbRH-1" vertex="1">
            <mxGeometry x="1507.5" y="445" width="120" height="45" as="geometry" />
          </mxCell>
        </UserObject>
        <UserObject label="" lucidchartObjectId="bU6nRvkBDQGP" id="_-cHjgoWH2krjIYOZbRH-51">
          <mxCell style="html=1;jettySize=18;whiteSpace=wrap;fontSize=13;strokeColor=#5E5E5E;strokeWidth=1.5;arcSize=12;edgeStyle=orthogonalEdgeStyle;startArrow=none;;endArrow=none;;exitX=-0.009;exitY=0.5;exitPerimeter=0;entryX=1.009;entryY=0.5;entryPerimeter=0;sketch=1;" parent="_-cHjgoWH2krjIYOZbRH-1" source="_-cHjgoWH2krjIYOZbRH-48" target="_-cHjgoWH2krjIYOZbRH-49" edge="1">
            <mxGeometry width="100" height="100" relative="1" as="geometry">
              <Array as="points" />
            </mxGeometry>
          </mxCell>
        </UserObject>
        <UserObject label="" lucidchartObjectId="eU6nitvqeQJ3" id="_-cHjgoWH2krjIYOZbRH-52">
          <mxCell style="html=1;jettySize=18;whiteSpace=wrap;fontSize=13;strokeColor=#5E5E5E;strokeWidth=1.5;arcSize=12;edgeStyle=orthogonalEdgeStyle;startArrow=none;;endArrow=none;;exitX=-0.009;exitY=0.5;exitPerimeter=0;entryX=1.009;entryY=0.5;entryPerimeter=0;sketch=1;" parent="_-cHjgoWH2krjIYOZbRH-1" source="_-cHjgoWH2krjIYOZbRH-49" target="_-cHjgoWH2krjIYOZbRH-47" edge="1">
            <mxGeometry width="100" height="100" relative="1" as="geometry">
              <Array as="points" />
            </mxGeometry>
          </mxCell>
        </UserObject>
        <UserObject label="" lucidchartObjectId="zV6nmgGL8G4V" id="_-cHjgoWH2krjIYOZbRH-53">
          <mxCell style="html=1;jettySize=18;whiteSpace=wrap;fontSize=13;strokeColor=#5E5E5E;strokeWidth=1.5;arcSize=12;edgeStyle=orthogonalEdgeStyle;startArrow=none;;endArrow=none;;sketch=1;" parent="_-cHjgoWH2krjIYOZbRH-1" edge="1">
            <mxGeometry width="100" height="100" relative="1" as="geometry">
              <Array as="points">
                <mxPoint x="1790" y="465" />
                <mxPoint x="1848" y="465" />
              </Array>
              <mxPoint x="1790" y="388" as="sourcePoint" />
              <mxPoint x="1847.5" y="545" as="targetPoint" />
            </mxGeometry>
          </mxCell>
        </UserObject>
        <UserObject label="" lucidchartObjectId="GKlow7b7QTN~" id="_-cHjgoWH2krjIYOZbRH-54">
          <mxCell style="html=1;jettySize=18;whiteSpace=wrap;fontSize=13;strokeColor=#b85450;strokeOpacity=100;strokeWidth=1.5;arcSize=12;edgeStyle=orthogonalEdgeStyle;startArrow=none;;endArrow=none;;exitX=-0.009;exitY=0.5;exitPerimeter=0;entryX=1.009;entryY=0.5;entryPerimeter=0;fillColor=#f8cecc;sketch=1;" parent="_-cHjgoWH2krjIYOZbRH-1" source="_-cHjgoWH2krjIYOZbRH-35" target="_-cHjgoWH2krjIYOZbRH-27" edge="1">
            <mxGeometry width="100" height="100" relative="1" as="geometry">
              <Array as="points" />
            </mxGeometry>
          </mxCell>
        </UserObject>
        <UserObject label="" lucidchartObjectId="4Qlo~swPg.hA" id="_-cHjgoWH2krjIYOZbRH-55">
          <mxCell style="html=1;jettySize=18;whiteSpace=wrap;fontSize=13;strokeColor=#b85450;strokeOpacity=100;strokeWidth=1.5;arcSize=12;edgeStyle=orthogonalEdgeStyle;startArrow=none;;endArrow=none;;exitX=1.009;exitY=0.5;exitPerimeter=0;entryX=-0.009;entryY=0.5;entryPerimeter=0;fillColor=#f8cecc;sketch=1;" parent="_-cHjgoWH2krjIYOZbRH-1" source="_-cHjgoWH2krjIYOZbRH-24" target="_-cHjgoWH2krjIYOZbRH-31" edge="1">
            <mxGeometry width="100" height="100" relative="1" as="geometry">
              <Array as="points" />
            </mxGeometry>
          </mxCell>
        </UserObject>
        <UserObject label="ScorchNight" lucidchartObjectId="vRlonehAEG~2" id="_-cHjgoWH2krjIYOZbRH-56">
          <mxCell style="html=1;overflow=block;blockSpacing=1;whiteSpace=wrap;;whiteSpace=wrap;fontSize=16.7;fontColor=#333333;spacing=3.8;strokeColor=#5e5e5e;strokeOpacity=100;absoluteArcSize=1;arcSize=9;strokeWidth=2.3;rounded=1;sketch=1;" parent="_-cHjgoWH2krjIYOZbRH-1" vertex="1">
            <mxGeometry x="677.5" y="520" width="120" height="45" as="geometry" />
          </mxCell>
        </UserObject>
        <UserObject label="" lucidchartObjectId="YSlojY~FfSWc" id="_-cHjgoWH2krjIYOZbRH-57">
          <mxCell style="html=1;jettySize=18;whiteSpace=wrap;fontSize=13;strokeColor=#5E5E5E;strokeWidth=1.5;arcSize=12;edgeStyle=orthogonalEdgeStyle;startArrow=none;;endArrow=none;;entryX=0.5;entryY=-0.025;entryPerimeter=0;sketch=1;" parent="_-cHjgoWH2krjIYOZbRH-1" edge="1">
            <mxGeometry width="100" height="100" relative="1" as="geometry">
              <Array as="points">
                <mxPoint x="517.5" y="405" />
                <mxPoint x="588.5" y="405" />
              </Array>
              <mxPoint x="517.5" y="365" as="sourcePoint" />
              <mxPoint x="588.4999999999998" y="519.9949999999999" as="targetPoint" />
            </mxGeometry>
          </mxCell>
        </UserObject>
        <UserObject label="StormingCall" lucidchartObjectId="g4loRliNZPfK" id="_-cHjgoWH2krjIYOZbRH-58">
          <mxCell style="html=1;overflow=block;blockSpacing=1;whiteSpace=wrap;;whiteSpace=wrap;fontSize=16.7;fontColor=#333333;spacing=3.8;strokeColor=#5e5e5e;strokeOpacity=100;absoluteArcSize=1;arcSize=9;strokeWidth=2.3;rounded=1;sketch=1;" parent="_-cHjgoWH2krjIYOZbRH-1" vertex="1">
            <mxGeometry x="827.5" y="520" width="120" height="45" as="geometry" />
          </mxCell>
        </UserObject>
        <UserObject label="" lucidchartObjectId="z4loe81sxhFM" id="_-cHjgoWH2krjIYOZbRH-59">
          <mxCell style="html=1;jettySize=18;whiteSpace=wrap;fontSize=13;strokeColor=#5E5E5E;strokeWidth=1.5;arcSize=12;edgeStyle=orthogonalEdgeStyle;startArrow=none;;endArrow=none;;exitX=-0.009;exitY=0.5;exitPerimeter=0;entryX=1.009;entryY=0.5;entryPerimeter=0;sketch=1;" parent="_-cHjgoWH2krjIYOZbRH-1" source="_-cHjgoWH2krjIYOZbRH-58" target="_-cHjgoWH2krjIYOZbRH-56" edge="1">
            <mxGeometry width="100" height="100" relative="1" as="geometry">
              <Array as="points" />
            </mxGeometry>
          </mxCell>
        </UserObject>
        <UserObject label="" lucidchartObjectId="C4lotgxP-2BV" id="_-cHjgoWH2krjIYOZbRH-60">
          <mxCell style="html=1;jettySize=18;whiteSpace=wrap;fontSize=13;strokeColor=#5E5E5E;strokeWidth=1.5;arcSize=12;edgeStyle=orthogonalEdgeStyle;startArrow=none;;endArrow=none;;noJump=0;backgroundOutline=0;metaEdit=0;fixDash=0;snapToPoint=1;sketch=1;" parent="_-cHjgoWH2krjIYOZbRH-1" edge="1">
            <mxGeometry width="100" height="100" relative="1" as="geometry">
              <Array as="points" />
              <mxPoint x="812.5" y="545" as="sourcePoint" />
              <mxPoint x="812.5" y="368" as="targetPoint" />
            </mxGeometry>
          </mxCell>
        </UserObject>
        <mxCell id="_-cHjgoWH2krjIYOZbRH-61" value="" style="endArrow=none;html=1;sketch=1;" parent="_-cHjgoWH2krjIYOZbRH-1" source="_-cHjgoWH2krjIYOZbRH-10" edge="1">
          <mxGeometry width="50" height="50" relative="1" as="geometry">
            <mxPoint x="1827.5" y="592.5" as="sourcePoint" />
            <mxPoint x="1857.5" y="543" as="targetPoint" />
          </mxGeometry>
        </mxCell>
        <mxCell id="_-cHjgoWH2krjIYOZbRH-62" style="edgeStyle=none;orthogonalLoop=1;jettySize=auto;html=1;exitX=1;exitY=0.5;exitDx=0;exitDy=0;entryX=0;entryY=0.5;entryDx=0;entryDy=0;endArrow=none;endFill=0;fillColor=#f8cecc;strokeColor=#b85450;sketch=1;" parent="_-cHjgoWH2krjIYOZbRH-1" source="_-cHjgoWH2krjIYOZbRH-63" target="_-cHjgoWH2krjIYOZbRH-64" edge="1">
          <mxGeometry relative="1" as="geometry" />
        </mxCell>
        <UserObject label="Hawk" lucidchartObjectId="GL6nMM1_W.dq" id="_-cHjgoWH2krjIYOZbRH-63">
          <mxCell style="html=1;overflow=block;blockSpacing=1;whiteSpace=wrap;;whiteSpace=wrap;fontSize=16.7;fontColor=#333333;spacing=3.8;strokeColor=#5e5e5e;strokeOpacity=100;absoluteArcSize=1;arcSize=9;strokeWidth=2.3;rounded=1;sketch=1;" parent="_-cHjgoWH2krjIYOZbRH-1" vertex="1">
            <mxGeometry x="1877.5" y="310" width="120" height="45" as="geometry" />
          </mxCell>
        </UserObject>
        <UserObject label="Seashell" lucidchartObjectId="GL6nMM1_W.dq" id="_-cHjgoWH2krjIYOZbRH-64">
          <mxCell style="html=1;overflow=block;blockSpacing=1;whiteSpace=wrap;;whiteSpace=wrap;fontSize=16.7;fontColor=#333333;spacing=3.8;strokeColor=#5e5e5e;strokeOpacity=100;absoluteArcSize=1;arcSize=9;strokeWidth=2.3;rounded=1;sketch=1;" parent="_-cHjgoWH2krjIYOZbRH-1" vertex="1">
            <mxGeometry x="2037.5" y="310" width="120" height="45" as="geometry" />
          </mxCell>
        </UserObject>
        <mxCell id="_-cHjgoWH2krjIYOZbRH-65" value="" style="endArrow=none;html=1;entryX=0;entryY=0.5;entryDx=0;entryDy=0;exitX=0.5;exitY=0;exitDx=0;exitDy=0;fillColor=#f8cecc;strokeColor=#b85450;sketch=1;" parent="_-cHjgoWH2krjIYOZbRH-1" source="_-cHjgoWH2krjIYOZbRH-10" target="_-cHjgoWH2krjIYOZbRH-13" edge="1">
          <mxGeometry width="50" height="50" relative="1" as="geometry">
            <mxPoint x="1887.5" y="495" as="sourcePoint" />
            <mxPoint x="1937.5" y="445" as="targetPoint" />
            <Array as="points">
              <mxPoint x="1767.5" y="495" />
              <mxPoint x="1937.5" y="495" />
              <mxPoint x="1937.5" y="403" />
            </Array>
          </mxGeometry>
        </mxCell>
        <UserObject label="FreezingBite&lt;br&gt;" lucidchartObjectId="lx6nJb_0bG_-" id="_-cHjgoWH2krjIYOZbRH-66">
          <mxCell style="html=1;overflow=block;blockSpacing=1;whiteSpace=wrap;;whiteSpace=wrap;fontSize=16.7;fontColor=#333333;spacing=3.8;strokeColor=#5e5e5e;strokeOpacity=100;absoluteArcSize=1;arcSize=9;strokeWidth=2.3;rounded=1;sketch=1;" parent="_-cHjgoWH2krjIYOZbRH-1" vertex="1">
            <mxGeometry x="827.5" y="435" width="120" height="45" as="geometry" />
          </mxCell>
        </UserObject>
        <mxCell id="_-cHjgoWH2krjIYOZbRH-67" value="" style="endArrow=none;html=1;rounded=0;exitX=1;exitY=0.5;exitDx=0;exitDy=0;entryX=0;entryY=0.5;entryDx=0;entryDy=0;fillColor=#f8cecc;strokeColor=#b85450;sketch=1;" parent="_-cHjgoWH2krjIYOZbRH-1" source="_-cHjgoWH2krjIYOZbRH-23" target="_-cHjgoWH2krjIYOZbRH-28" edge="1">
          <mxGeometry width="50" height="50" relative="1" as="geometry">
            <mxPoint x="320" y="420" as="sourcePoint" />
            <mxPoint x="370" y="370" as="targetPoint" />
          </mxGeometry>
        </mxCell>
        <mxCell id="_-cHjgoWH2krjIYOZbRH-68" value="" style="endArrow=none;html=1;exitX=0.5;exitY=0;exitDx=0;exitDy=0;sketch=1;" parent="_-cHjgoWH2krjIYOZbRH-1" source="_-cHjgoWH2krjIYOZbRH-33" edge="1">
          <mxGeometry width="50" height="50" relative="1" as="geometry">
            <mxPoint x="1390" y="690" as="sourcePoint" />
            <mxPoint x="1410" y="620" as="targetPoint" />
          </mxGeometry>
        </mxCell>
        <mxCell id="_-cHjgoWH2krjIYOZbRH-69" style="edgeStyle=orthogonalEdgeStyle;orthogonalLoop=1;jettySize=auto;html=1;exitX=0;exitY=0.5;exitDx=0;exitDy=0;endArrow=none;endFill=0;entryX=1;entryY=0.5;entryDx=0;entryDy=0;sketch=1;" parent="_-cHjgoWH2krjIYOZbRH-1" source="_-cHjgoWH2krjIYOZbRH-70" target="_-cHjgoWH2krjIYOZbRH-13" edge="1">
          <mxGeometry relative="1" as="geometry">
            <mxPoint x="2080" y="402.71428571428567" as="targetPoint" />
          </mxGeometry>
        </mxCell>
        <UserObject label="Lakes" lucidchartObjectId="AWwoFBo2OCs_" id="_-cHjgoWH2krjIYOZbRH-70">
          <mxCell style="html=1;overflow=block;blockSpacing=1;whiteSpace=wrap;;whiteSpace=wrap;fontSize=16.7;fontColor=#333333;spacing=3.8;strokeColor=#5e5e5e;strokeOpacity=100;absoluteArcSize=1;arcSize=9;strokeWidth=2.3;rounded=1;sketch=1;" parent="_-cHjgoWH2krjIYOZbRH-1" vertex="1">
            <mxGeometry x="2100" y="380" width="120" height="45" as="geometry" />
          </mxCell>
        </UserObject>
        <mxCell id="_-cHjgoWH2krjIYOZbRH-71" style="edgeStyle=orthogonalEdgeStyle;rounded=0;orthogonalLoop=1;jettySize=auto;html=1;exitX=0;exitY=0.5;exitDx=0;exitDy=0;entryX=1.006;entryY=0.489;entryDx=0;entryDy=0;entryPerimeter=0;endArrow=none;endFill=0;sketch=1;" parent="_-cHjgoWH2krjIYOZbRH-1" source="_-cHjgoWH2krjIYOZbRH-72" target="_-cHjgoWH2krjIYOZbRH-70" edge="1">
          <mxGeometry relative="1" as="geometry" />
        </mxCell>
        <UserObject label="Butterfly" lucidchartObjectId="AWwoFBo2OCs_" id="_-cHjgoWH2krjIYOZbRH-72">
          <mxCell style="html=1;overflow=block;blockSpacing=1;whiteSpace=wrap;;whiteSpace=wrap;fontSize=16.7;fontColor=#333333;spacing=3.8;strokeColor=#5e5e5e;strokeOpacity=100;absoluteArcSize=1;arcSize=9;strokeWidth=2.3;rounded=1;sketch=1;" parent="_-cHjgoWH2krjIYOZbRH-1" vertex="1">
            <mxGeometry x="2250" y="380" width="120" height="45" as="geometry" />
          </mxCell>
        </UserObject>
        <mxCell id="_-cHjgoWH2krjIYOZbRH-73" value="" style="endArrow=none;html=1;sketch=1;" parent="_-cHjgoWH2krjIYOZbRH-1" edge="1">
          <mxGeometry width="50" height="50" relative="1" as="geometry">
            <mxPoint x="1413" y="542" as="sourcePoint" />
            <mxPoint x="1402" y="368" as="targetPoint" />
            <Array as="points">
              <mxPoint x="1413" y="499" />
              <mxPoint x="1340" y="500" />
              <mxPoint x="1340" y="470" />
              <mxPoint x="1340" y="420" />
              <mxPoint x="1402" y="420" />
            </Array>
          </mxGeometry>
        </mxCell>
        <mxCell id="Nh1T4h_zC2VqbDQOW6vD-0" value="" style="endArrow=none;html=1;rounded=0;exitX=0.5;exitY=0;exitDx=0;exitDy=0;sketch=1;" parent="_-cHjgoWH2krjIYOZbRH-1" source="_-cHjgoWH2krjIYOZbRH-49" edge="1">
          <mxGeometry width="50" height="50" relative="1" as="geometry">
            <mxPoint x="1550" y="424" as="sourcePoint" />
            <mxPoint x="1568" y="302" as="targetPoint" />
          </mxGeometry>
        </mxCell>
      </root>
    </mxGraphModel>
  </diagram>
  <diagram id="l4mublSIkouZwaNWUgJb" name="BlazeClan">
    <mxGraphModel dx="1564" dy="936" grid="1" gridSize="4" guides="1" tooltips="1" connect="1" arrows="1" fold="1" page="1" pageScale="1" pageWidth="1100" pageHeight="850" background="none" math="0" shadow="0">
      <root>
        <mxCell id="hM7QNABl_Ut3n8U8w1K9-0" />
        <mxCell id="hM7QNABl_Ut3n8U8w1K9-1" parent="hM7QNABl_Ut3n8U8w1K9-0" />
        <mxCell id="PK3NWCgeounHt1eRXEzG-47" style="edgeStyle=orthogonalEdgeStyle;sketch=1;orthogonalLoop=1;jettySize=auto;html=1;exitX=1;exitY=0.5;exitDx=0;exitDy=0;entryX=0;entryY=0.5;entryDx=0;entryDy=0;endArrow=none;endFill=0;fillColor=#f8cecc;strokeColor=#b85450;" parent="hM7QNABl_Ut3n8U8w1K9-1" source="h2xYJ6cWB-5jKQ7NupQx-6" target="PK3NWCgeounHt1eRXEzG-4" edge="1">
          <mxGeometry relative="1" as="geometry" />
        </mxCell>
        <UserObject label="BlazeFate" lucidchartObjectId="aD6n6iyjvHGV" id="h2xYJ6cWB-5jKQ7NupQx-6">
          <mxCell style="html=1;overflow=block;blockSpacing=1;whiteSpace=wrap;;whiteSpace=wrap;fontSize=16.7;fontColor=#333333;spacing=3.8;strokeColor=#5e5e5e;strokeOpacity=100;rounded=1;absoluteArcSize=1;arcSize=9;strokeWidth=2.3;sketch=1;" parent="hM7QNABl_Ut3n8U8w1K9-1" vertex="1">
            <mxGeometry x="114" y="118" width="120" height="45" as="geometry" />
          </mxCell>
        </UserObject>
        <mxCell id="PK3NWCgeounHt1eRXEzG-0" value="&lt;b style=&quot;font-weight: normal&quot; id=&quot;docs-internal-guid-61569ce5-7fff-d2ad-86d8-2d77c9e21195&quot;&gt;&lt;p dir=&quot;ltr&quot; style=&quot;line-height: 1.38 ; margin-top: 12pt ; margin-bottom: 12pt&quot;&gt;&lt;span style=&quot;font-size: 11pt ; font-family: &amp;#34;advent pro&amp;#34; , sans-serif ; color: rgb(0 , 0 , 0) ; background-color: transparent ; font-weight: 700 ; font-style: normal ; font-variant: normal ; text-decoration: none ; vertical-align: baseline&quot;&gt;Scattered`Pelt&lt;/span&gt;&lt;/p&gt;&lt;p dir=&quot;ltr&quot; style=&quot;line-height: 1.38 ; margin-top: 12pt ; margin-bottom: 12pt&quot;&gt;&lt;span style=&quot;font-size: 11pt ; font-family: &amp;#34;advent pro&amp;#34; , sans-serif ; color: rgb(0 , 0 , 0) ; background-color: transparent ; font-weight: 700 ; font-style: normal ; font-variant: normal ; text-decoration: none ; vertical-align: baseline&quot;&gt;DoveTail&lt;/span&gt;&lt;/p&gt;&lt;p dir=&quot;ltr&quot; style=&quot;line-height: 1.38 ; margin-top: 12pt ; margin-bottom: 12pt&quot;&gt;&lt;span style=&quot;font-size: 11pt ; font-family: &amp;#34;advent pro&amp;#34; , sans-serif ; color: rgb(0 , 0 , 0) ; background-color: transparent ; font-weight: 700 ; font-style: normal ; font-variant: normal ; text-decoration: none ; vertical-align: baseline&quot;&gt;MorningFern&amp;nbsp;&lt;/span&gt;&lt;/p&gt;&lt;p dir=&quot;ltr&quot; style=&quot;line-height: 1.38 ; margin-top: 12pt ; margin-bottom: 12pt&quot;&gt;&lt;span style=&quot;font-size: 11pt ; font-family: &amp;#34;advent pro&amp;#34; , sans-serif ; color: rgb(0 , 0 , 0) ; background-color: transparent ; font-weight: 700 ; font-style: normal ; font-variant: normal ; text-decoration: none ; vertical-align: baseline&quot;&gt;Ember`step&lt;/span&gt;&lt;/p&gt;&lt;p dir=&quot;ltr&quot; style=&quot;line-height: 1.38 ; margin-top: 12pt ; margin-bottom: 12pt&quot;&gt;&lt;span style=&quot;font-size: 11pt ; font-family: &amp;#34;advent pro&amp;#34; , sans-serif ; color: rgb(0 , 0 , 0) ; background-color: transparent ; font-weight: 700 ; font-style: normal ; font-variant: normal ; text-decoration: none ; vertical-align: baseline&quot;&gt;Dappled`root&lt;/span&gt;&lt;/p&gt;&lt;p dir=&quot;ltr&quot; style=&quot;line-height: 1.38 ; margin-top: 12pt ; margin-bottom: 12pt&quot;&gt;&lt;span style=&quot;font-size: 11pt ; font-family: &amp;#34;advent pro&amp;#34; , sans-serif ; color: rgb(0 , 0 , 0) ; background-color: transparent ; font-weight: 700 ; font-style: normal ; font-variant: normal ; text-decoration: none ; vertical-align: baseline&quot;&gt;Flash`sprout&lt;/span&gt;&lt;/p&gt;&lt;p dir=&quot;ltr&quot; style=&quot;line-height: 1.38 ; margin-top: 12pt ; margin-bottom: 12pt&quot;&gt;&lt;span style=&quot;font-size: 11pt ; font-family: &amp;#34;advent pro&amp;#34; , sans-serif ; color: rgb(0 , 0 , 0) ; background-color: transparent ; font-weight: 700 ; font-style: normal ; font-variant: normal ; text-decoration: none ; vertical-align: baseline&quot;&gt;Orange`Stripe&lt;/span&gt;&lt;/p&gt;&lt;p dir=&quot;ltr&quot; style=&quot;line-height: 1.38 ; margin-top: 12pt ; margin-bottom: 12pt&quot;&gt;&lt;span style=&quot;font-size: 11pt ; font-family: &amp;#34;advent pro&amp;#34; , sans-serif ; color: rgb(0 , 0 , 0) ; background-color: transparent ; font-weight: 700 ; font-style: normal ; font-variant: normal ; text-decoration: none ; vertical-align: baseline&quot;&gt;Coral`silver&lt;/span&gt;&lt;/p&gt;&lt;p dir=&quot;ltr&quot; style=&quot;line-height: 1.38 ; margin-top: 12pt ; margin-bottom: 12pt&quot;&gt;&lt;span style=&quot;font-size: 11pt ; font-family: &amp;#34;advent pro&amp;#34; , sans-serif ; color: rgb(0 , 0 , 0) ; background-color: transparent ; font-weight: 700 ; font-style: normal ; font-variant: normal ; text-decoration: none ; vertical-align: baseline&quot;&gt;Little`sky&lt;/span&gt;&lt;/p&gt;&lt;p dir=&quot;ltr&quot; style=&quot;line-height: 1.38 ; margin-top: 12pt ; margin-bottom: 12pt&quot;&gt;&lt;span style=&quot;font-size: 11pt ; font-family: &amp;#34;advent pro&amp;#34; , sans-serif ; color: rgb(0 , 0 , 0) ; background-color: transparent ; font-weight: 700 ; font-style: normal ; font-variant: normal ; text-decoration: none ; vertical-align: baseline&quot;&gt;Oak`storm&lt;/span&gt;&lt;/p&gt;&lt;p dir=&quot;ltr&quot; style=&quot;line-height: 1.38 ; margin-top: 12pt ; margin-bottom: 12pt&quot;&gt;&lt;span style=&quot;font-size: 11pt ; font-family: &amp;#34;advent pro&amp;#34; , sans-serif ; color: rgb(0 , 0 , 0) ; background-color: transparent ; font-weight: 700 ; font-style: normal ; font-variant: normal ; text-decoration: none ; vertical-align: baseline&quot;&gt;Dull`legs&lt;/span&gt;&lt;/p&gt;&lt;p dir=&quot;ltr&quot; style=&quot;line-height: 1.38 ; margin-top: 12pt ; margin-bottom: 12pt&quot;&gt;&lt;span style=&quot;font-size: 11pt ; font-family: &amp;#34;advent pro&amp;#34; , sans-serif ; color: rgb(0 , 0 , 0) ; background-color: transparent ; font-weight: 700 ; font-style: normal ; font-variant: normal ; text-decoration: none ; vertical-align: baseline&quot;&gt;Grey`pine&lt;/span&gt;&lt;/p&gt;&lt;p dir=&quot;ltr&quot; style=&quot;line-height: 1.38 ; margin-top: 12pt ; margin-bottom: 12pt&quot;&gt;&lt;span style=&quot;font-size: 11pt ; font-family: &amp;#34;advent pro&amp;#34; , sans-serif ; color: rgb(0 , 0 , 0) ; background-color: transparent ; font-weight: 700 ; font-style: normal ; font-variant: normal ; text-decoration: none ; vertical-align: baseline&quot;&gt;Eagle`face&lt;/span&gt;&lt;/p&gt;&lt;p dir=&quot;ltr&quot; style=&quot;line-height: 1.38 ; margin-top: 12pt ; margin-bottom: 12pt&quot;&gt;&lt;span style=&quot;font-size: 11pt ; font-family: &amp;#34;advent pro&amp;#34; , sans-serif ; color: rgb(0 , 0 , 0) ; background-color: transparent ; font-weight: 700 ; font-style: normal ; font-variant: normal ; text-decoration: none ; vertical-align: baseline&quot;&gt;Cherry`stick&lt;/span&gt;&lt;/p&gt;&lt;p dir=&quot;ltr&quot; style=&quot;line-height: 1.38 ; margin-top: 12pt ; margin-bottom: 12pt&quot;&gt;&lt;span style=&quot;font-size: 11pt ; font-family: &amp;#34;advent pro&amp;#34; , sans-serif ; color: rgb(0 , 0 , 0) ; background-color: transparent ; font-weight: 700 ; font-style: normal ; font-variant: normal ; text-decoration: none ; vertical-align: baseline&quot;&gt;Leopard`Howl&lt;/span&gt;&lt;/p&gt;&lt;p dir=&quot;ltr&quot; style=&quot;line-height: 1.38 ; margin-top: 12pt ; margin-bottom: 12pt&quot;&gt;&lt;span style=&quot;font-size: 11pt ; font-family: &amp;#34;advent pro&amp;#34; , sans-serif ; color: rgb(0 , 0 , 0) ; background-color: transparent ; font-weight: 700 ; font-style: normal ; font-variant: normal ; text-decoration: none ; vertical-align: baseline&quot;&gt;Dew`branch&lt;/span&gt;&lt;/p&gt;&lt;p dir=&quot;ltr&quot; style=&quot;line-height: 1.38 ; margin-top: 12pt ; margin-bottom: 12pt&quot;&gt;&lt;span style=&quot;font-size: 11pt ; font-family: &amp;#34;advent pro&amp;#34; , sans-serif ; color: rgb(0 , 0 , 0) ; background-color: transparent ; font-weight: 700 ; font-style: normal ; font-variant: normal ; text-decoration: none ; vertical-align: baseline&quot;&gt;Half`step&lt;/span&gt;&lt;/p&gt;&lt;p dir=&quot;ltr&quot; style=&quot;line-height: 1.38 ; margin-top: 12pt ; margin-bottom: 12pt&quot;&gt;&lt;span style=&quot;font-size: 11pt ; font-family: &amp;#34;advent pro&amp;#34; , sans-serif ; color: rgb(0 , 0 , 0) ; background-color: transparent ; font-weight: 700 ; font-style: normal ; font-variant: normal ; text-decoration: none ; vertical-align: baseline&quot;&gt;Rook`step&lt;/span&gt;&lt;/p&gt;&lt;p dir=&quot;ltr&quot; style=&quot;line-height: 1.38 ; margin-top: 12pt ; margin-bottom: 12pt&quot;&gt;&lt;span style=&quot;font-size: 11pt ; font-family: &amp;#34;advent pro&amp;#34; , sans-serif ; color: rgb(0 , 0 , 0) ; background-color: transparent ; font-weight: 700 ; font-style: normal ; font-variant: normal ; text-decoration: none ; vertical-align: baseline&quot;&gt;Boar`step&lt;/span&gt;&lt;/p&gt;&lt;p dir=&quot;ltr&quot; style=&quot;line-height: 1.38 ; margin-top: 12pt ; margin-bottom: 12pt&quot;&gt;&lt;span style=&quot;font-size: 11pt ; font-family: &amp;#34;advent pro&amp;#34; , sans-serif ; color: rgb(0 , 0 , 0) ; background-color: transparent ; font-weight: 700 ; font-style: normal ; font-variant: normal ; text-decoration: none ; vertical-align: baseline&quot;&gt;Lake`step&lt;/span&gt;&lt;/p&gt;&lt;p dir=&quot;ltr&quot; style=&quot;line-height: 1.38 ; margin-top: 12pt ; margin-bottom: 12pt&quot;&gt;&lt;span style=&quot;font-size: 11pt ; font-family: &amp;#34;advent pro&amp;#34; , sans-serif ; color: rgb(0 , 0 , 0) ; background-color: transparent ; font-weight: 700 ; font-style: normal ; font-variant: normal ; text-decoration: none ; vertical-align: baseline&quot;&gt;Owl`Eyes&lt;/span&gt;&lt;/p&gt;&lt;p dir=&quot;ltr&quot; style=&quot;line-height: 1.38 ; margin-top: 12pt ; margin-bottom: 12pt&quot;&gt;&lt;span style=&quot;font-size: 11pt ; font-family: &amp;#34;advent pro&amp;#34; , sans-serif ; color: rgb(0 , 0 , 0) ; background-color: transparent ; font-weight: 700 ; font-style: normal ; font-variant: normal ; text-decoration: none ; vertical-align: baseline&quot;&gt;Apple`blood&lt;/span&gt;&lt;/p&gt;&lt;br&gt;&lt;/b&gt;" style="text;whiteSpace=wrap;html=1;" parent="hM7QNABl_Ut3n8U8w1K9-1" vertex="1">
          <mxGeometry x="1988" y="16" width="132" height="766" as="geometry" />
        </mxCell>
        <UserObject label="HoneyTuft" lucidchartObjectId="aD6n6iyjvHGV" id="PK3NWCgeounHt1eRXEzG-1">
          <mxCell style="html=1;overflow=block;blockSpacing=1;whiteSpace=wrap;;whiteSpace=wrap;fontSize=16.7;fontColor=#333333;spacing=3.8;strokeColor=#5e5e5e;strokeOpacity=100;rounded=1;absoluteArcSize=1;arcSize=9;strokeWidth=2.3;sketch=1;" parent="hM7QNABl_Ut3n8U8w1K9-1" vertex="1">
            <mxGeometry x="278" y="376.5" width="120" height="45" as="geometry" />
          </mxCell>
        </UserObject>
        <UserObject label="&lt;div&gt;DoveTail&lt;/div&gt;" lucidchartObjectId="aD6n6iyjvHGV" id="PK3NWCgeounHt1eRXEzG-2">
          <mxCell style="html=1;overflow=block;blockSpacing=1;whiteSpace=wrap;;whiteSpace=wrap;fontSize=16.7;fontColor=#333333;spacing=3.8;strokeColor=#5e5e5e;strokeOpacity=100;rounded=1;absoluteArcSize=1;arcSize=9;strokeWidth=2.3;sketch=1;" parent="hM7QNABl_Ut3n8U8w1K9-1" vertex="1">
            <mxGeometry x="444" y="120" width="120" height="45" as="geometry" />
          </mxCell>
        </UserObject>
        <UserObject label="MorningFern" lucidchartObjectId="aD6n6iyjvHGV" id="PK3NWCgeounHt1eRXEzG-4">
          <mxCell style="html=1;overflow=block;blockSpacing=1;whiteSpace=wrap;;whiteSpace=wrap;fontSize=16.7;fontColor=#333333;spacing=3.8;strokeColor=#5e5e5e;strokeOpacity=100;rounded=1;absoluteArcSize=1;arcSize=9;strokeWidth=2.3;sketch=1;" parent="hM7QNABl_Ut3n8U8w1K9-1" vertex="1">
            <mxGeometry x="278" y="118" width="120" height="45" as="geometry" />
          </mxCell>
        </UserObject>
        <UserObject label="&lt;div&gt;Trillium&lt;span&gt;Step&lt;/span&gt;&lt;/div&gt;" lucidchartObjectId="aD6n6iyjvHGV" id="PK3NWCgeounHt1eRXEzG-5">
          <mxCell style="html=1;overflow=block;blockSpacing=1;whiteSpace=wrap;;whiteSpace=wrap;fontSize=16.7;fontColor=#333333;spacing=3.8;strokeColor=#5e5e5e;strokeOpacity=100;rounded=1;absoluteArcSize=1;arcSize=9;strokeWidth=2.3;sketch=1;" parent="hM7QNABl_Ut3n8U8w1K9-1" vertex="1">
            <mxGeometry x="608" y="300" width="120" height="45" as="geometry" />
          </mxCell>
        </UserObject>
        <UserObject label="&lt;div&gt;FlashSprout&lt;/div&gt;" lucidchartObjectId="aD6n6iyjvHGV" id="PK3NWCgeounHt1eRXEzG-6">
          <mxCell style="html=1;overflow=block;blockSpacing=1;whiteSpace=wrap;;whiteSpace=wrap;fontSize=16.7;fontColor=#333333;spacing=3.8;strokeColor=#5e5e5e;strokeOpacity=100;rounded=1;absoluteArcSize=1;arcSize=9;strokeWidth=2.3;sketch=1;" parent="hM7QNABl_Ut3n8U8w1K9-1" vertex="1">
            <mxGeometry x="444" y="211" width="120" height="45" as="geometry" />
          </mxCell>
        </UserObject>
        <UserObject label="WoodBird" lucidchartObjectId="aD6n6iyjvHGV" id="PK3NWCgeounHt1eRXEzG-7">
          <mxCell style="html=1;overflow=block;blockSpacing=1;whiteSpace=wrap;;whiteSpace=wrap;fontSize=16.7;fontColor=#333333;spacing=3.8;strokeColor=#5e5e5e;strokeOpacity=100;rounded=1;absoluteArcSize=1;arcSize=9;strokeWidth=2.3;sketch=1;" parent="hM7QNABl_Ut3n8U8w1K9-1" vertex="1">
            <mxGeometry x="114" y="300" width="120" height="45" as="geometry" />
          </mxCell>
        </UserObject>
        <UserObject label="DarkenedSky" lucidchartObjectId="aD6n6iyjvHGV" id="PK3NWCgeounHt1eRXEzG-8">
          <mxCell style="html=1;overflow=block;blockSpacing=1;whiteSpace=wrap;;whiteSpace=wrap;fontSize=16.7;fontColor=#333333;spacing=3.8;strokeColor=#5e5e5e;strokeOpacity=100;rounded=1;absoluteArcSize=1;arcSize=9;strokeWidth=2.3;sketch=1;" parent="hM7QNABl_Ut3n8U8w1K9-1" vertex="1">
            <mxGeometry x="280" y="300" width="120" height="45" as="geometry" />
          </mxCell>
        </UserObject>
        <UserObject label="BerryStorm" lucidchartObjectId="aD6n6iyjvHGV" id="PK3NWCgeounHt1eRXEzG-9">
          <mxCell style="html=1;overflow=block;blockSpacing=1;whiteSpace=wrap;;whiteSpace=wrap;fontSize=16.7;fontColor=#333333;spacing=3.8;strokeColor=#5e5e5e;strokeOpacity=100;rounded=1;absoluteArcSize=1;arcSize=9;strokeWidth=2.3;sketch=1;" parent="hM7QNABl_Ut3n8U8w1K9-1" vertex="1">
            <mxGeometry x="444" y="299" width="120" height="45" as="geometry" />
          </mxCell>
        </UserObject>
        <UserObject label="&lt;div&gt;DappledRoot&lt;/div&gt;" lucidchartObjectId="aD6n6iyjvHGV" id="PK3NWCgeounHt1eRXEzG-12">
          <mxCell style="html=1;overflow=block;blockSpacing=1;whiteSpace=wrap;;whiteSpace=wrap;fontSize=16.7;fontColor=#333333;spacing=3.8;strokeColor=#5e5e5e;strokeOpacity=100;rounded=1;absoluteArcSize=1;arcSize=9;strokeWidth=2.3;sketch=1;" parent="hM7QNABl_Ut3n8U8w1K9-1" vertex="1">
            <mxGeometry x="608" y="120" width="120" height="45" as="geometry" />
          </mxCell>
        </UserObject>
        <UserObject label="OrangeStripe" lucidchartObjectId="aD6n6iyjvHGV" id="PK3NWCgeounHt1eRXEzG-14">
          <mxCell style="html=1;overflow=block;blockSpacing=1;whiteSpace=wrap;;whiteSpace=wrap;fontSize=16.7;fontColor=#333333;spacing=3.8;strokeColor=#5e5e5e;strokeOpacity=100;rounded=1;absoluteArcSize=1;arcSize=9;strokeWidth=2.3;sketch=1;" parent="hM7QNABl_Ut3n8U8w1K9-1" vertex="1">
            <mxGeometry x="608" y="211" width="120" height="45" as="geometry" />
          </mxCell>
        </UserObject>
        <UserObject label="DullLegs" lucidchartObjectId="aD6n6iyjvHGV" id="PK3NWCgeounHt1eRXEzG-15">
          <mxCell style="html=1;overflow=block;blockSpacing=1;whiteSpace=wrap;;whiteSpace=wrap;fontSize=16.7;fontColor=#333333;spacing=3.8;strokeColor=#5e5e5e;strokeOpacity=100;rounded=1;absoluteArcSize=1;arcSize=9;strokeWidth=2.3;sketch=1;" parent="hM7QNABl_Ut3n8U8w1K9-1" vertex="1">
            <mxGeometry x="114" y="196" width="120" height="45" as="geometry" />
          </mxCell>
        </UserObject>
        <mxCell id="PK3NWCgeounHt1eRXEzG-16" value="&lt;b style=&quot;font-weight: normal&quot; id=&quot;docs-internal-guid-3aa4136b-7fff-ac0e-66d9-d99aed2023cf&quot;&gt;&lt;p dir=&quot;ltr&quot; style=&quot;line-height: 1.38 ; margin-top: 12pt ; margin-bottom: 12pt&quot;&gt;&lt;span style=&quot;font-size: 11pt ; font-family: &amp;#34;advent pro&amp;#34; , sans-serif ; color: rgb(0 , 0 , 0) ; background-color: transparent ; font-weight: 700 ; font-style: normal ; font-variant: normal ; text-decoration: none ; vertical-align: baseline&quot;&gt;Honey`Tuft&lt;/span&gt;&lt;/p&gt;&lt;p dir=&quot;ltr&quot; style=&quot;line-height: 1.38 ; margin-top: 12pt ; margin-bottom: 12pt&quot;&gt;&lt;span style=&quot;font-size: 11pt ; font-family: &amp;#34;advent pro&amp;#34; , sans-serif ; color: rgb(0 , 0 , 0) ; background-color: transparent ; font-weight: 700 ; font-style: normal ; font-variant: normal ; text-decoration: none ; vertical-align: baseline&quot;&gt;Dove`tail&lt;/span&gt;&lt;/p&gt;&lt;p dir=&quot;ltr&quot; style=&quot;line-height: 1.38 ; margin-top: 12pt ; margin-bottom: 12pt&quot;&gt;&lt;span style=&quot;font-size: 11pt ; font-family: &amp;#34;advent pro&amp;#34; , sans-serif ; color: rgb(0 , 0 , 0) ; background-color: transparent ; font-weight: 700 ; font-style: normal ; font-variant: normal ; text-decoration: none ; vertical-align: baseline&quot;&gt;Morning`fern&lt;/span&gt;&lt;/p&gt;&lt;p dir=&quot;ltr&quot; style=&quot;line-height: 1.38 ; margin-top: 12pt ; margin-bottom: 12pt&quot;&gt;&lt;span style=&quot;font-size: 11pt ; font-family: &amp;#34;advent pro&amp;#34; , sans-serif ; color: rgb(0 , 0 , 0) ; background-color: transparent ; font-weight: 700 ; font-style: normal ; font-variant: normal ; text-decoration: none ; vertical-align: baseline&quot;&gt;Trillium`step&lt;/span&gt;&lt;/p&gt;&lt;p dir=&quot;ltr&quot; style=&quot;line-height: 1.38 ; margin-top: 12pt ; margin-bottom: 12pt&quot;&gt;&lt;span style=&quot;font-size: 11pt ; font-family: &amp;#34;advent pro&amp;#34; , sans-serif ; color: rgb(0 , 0 , 0) ; background-color: transparent ; font-weight: 700 ; font-style: normal ; font-variant: normal ; text-decoration: none ; vertical-align: baseline&quot;&gt;Dappled`root&lt;/span&gt;&lt;/p&gt;&lt;p dir=&quot;ltr&quot; style=&quot;line-height: 1.38 ; margin-top: 12pt ; margin-bottom: 12pt&quot;&gt;&lt;span style=&quot;font-size: 11pt ; font-family: &amp;#34;advent pro&amp;#34; , sans-serif ; color: rgb(0 , 0 , 0) ; background-color: transparent ; font-weight: 700 ; font-style: normal ; font-variant: normal ; text-decoration: none ; vertical-align: baseline&quot;&gt;Flash`sprout&lt;/span&gt;&lt;/p&gt;&lt;p dir=&quot;ltr&quot; style=&quot;line-height: 1.38 ; margin-top: 12pt ; margin-bottom: 12pt&quot;&gt;&lt;span style=&quot;font-size: 11pt ; font-family: &amp;#34;advent pro&amp;#34; , sans-serif ; color: rgb(0 , 0 , 0) ; background-color: transparent ; font-weight: 700 ; font-style: normal ; font-variant: normal ; text-decoration: none ; vertical-align: baseline&quot;&gt;Orange`Stripe&lt;/span&gt;&lt;/p&gt;&lt;p dir=&quot;ltr&quot; style=&quot;line-height: 1.38 ; margin-top: 12pt ; margin-bottom: 12pt&quot;&gt;&lt;span style=&quot;font-size: 11pt ; font-family: &amp;#34;advent pro&amp;#34; , sans-serif ; color: rgb(0 , 0 , 0) ; background-color: transparent ; font-weight: 700 ; font-style: normal ; font-variant: normal ; text-decoration: none ; vertical-align: baseline&quot;&gt;Wood`Bird&lt;/span&gt;&lt;/p&gt;&lt;p dir=&quot;ltr&quot; style=&quot;line-height: 1.38 ; margin-top: 12pt ; margin-bottom: 12pt&quot;&gt;&lt;span style=&quot;font-size: 11pt ; font-family: &amp;#34;advent pro&amp;#34; , sans-serif ; color: rgb(0 , 0 , 0) ; background-color: transparent ; font-weight: 700 ; font-style: normal ; font-variant: normal ; text-decoration: none ; vertical-align: baseline&quot;&gt;Darkened`sky&lt;/span&gt;&lt;/p&gt;&lt;p dir=&quot;ltr&quot; style=&quot;line-height: 1.38 ; margin-top: 12pt ; margin-bottom: 12pt&quot;&gt;&lt;span style=&quot;font-size: 11pt ; font-family: &amp;#34;advent pro&amp;#34; , sans-serif ; color: rgb(0 , 0 , 0) ; background-color: transparent ; font-weight: 700 ; font-style: normal ; font-variant: normal ; text-decoration: none ; vertical-align: baseline&quot;&gt;Berry`storm&lt;/span&gt;&lt;/p&gt;&lt;p dir=&quot;ltr&quot; style=&quot;line-height: 1.38 ; margin-top: 12pt ; margin-bottom: 12pt&quot;&gt;&lt;span style=&quot;font-size: 11pt ; font-family: &amp;#34;advent pro&amp;#34; , sans-serif ; color: rgb(0 , 0 , 0) ; background-color: transparent ; font-weight: 700 ; font-style: normal ; font-variant: normal ; text-decoration: none ; vertical-align: baseline&quot;&gt;Dull`legs&lt;/span&gt;&lt;/p&gt;&lt;p dir=&quot;ltr&quot; style=&quot;line-height: 1.38 ; margin-top: 12pt ; margin-bottom: 12pt&quot;&gt;&lt;span style=&quot;font-size: 11pt ; font-family: &amp;#34;advent pro&amp;#34; , sans-serif ; color: rgb(0 , 0 , 0) ; background-color: transparent ; font-weight: 700 ; font-style: normal ; font-variant: normal ; text-decoration: none ; vertical-align: baseline&quot;&gt;Chicory`pine&lt;/span&gt;&lt;/p&gt;&lt;p dir=&quot;ltr&quot; style=&quot;line-height: 1.38 ; margin-top: 12pt ; margin-bottom: 12pt&quot;&gt;&lt;span style=&quot;font-size: 11pt ; font-family: &amp;#34;advent pro&amp;#34; , sans-serif ; color: rgb(0 , 0 , 0) ; background-color: transparent ; font-weight: 700 ; font-style: normal ; font-variant: normal ; text-decoration: none ; vertical-align: baseline&quot;&gt;Eagle`face&lt;/span&gt;&lt;/p&gt;&lt;p dir=&quot;ltr&quot; style=&quot;line-height: 1.38 ; margin-top: 12pt ; margin-bottom: 12pt&quot;&gt;&lt;span style=&quot;font-size: 11pt ; font-family: &amp;#34;advent pro&amp;#34; , sans-serif ; color: rgb(0 , 0 , 0) ; background-color: transparent ; font-weight: 700 ; font-style: normal ; font-variant: normal ; text-decoration: none ; vertical-align: baseline&quot;&gt;Gold`stick&lt;/span&gt;&lt;/p&gt;&lt;p dir=&quot;ltr&quot; style=&quot;line-height: 1.38 ; margin-top: 12pt ; margin-bottom: 12pt&quot;&gt;&lt;span style=&quot;font-size: 11pt ; font-family: &amp;#34;advent pro&amp;#34; , sans-serif ; color: rgb(0 , 0 , 0) ; background-color: transparent ; font-weight: 700 ; font-style: normal ; font-variant: normal ; text-decoration: none ; vertical-align: baseline&quot;&gt;Wind`poppy&lt;/span&gt;&lt;/p&gt;&lt;p dir=&quot;ltr&quot; style=&quot;line-height: 1.38 ; margin-top: 12pt ; margin-bottom: 12pt&quot;&gt;&lt;span style=&quot;font-size: 11pt ; font-family: &amp;#34;advent pro&amp;#34; , sans-serif ; color: rgb(0 , 0 , 0) ; background-color: transparent ; font-weight: 700 ; font-style: normal ; font-variant: normal ; text-decoration: none ; vertical-align: baseline&quot;&gt;Dew`branch&lt;/span&gt;&lt;/p&gt;&lt;p dir=&quot;ltr&quot; style=&quot;line-height: 1.38 ; margin-top: 12pt ; margin-bottom: 12pt&quot;&gt;&lt;span style=&quot;font-size: 11pt ; font-family: &amp;#34;advent pro&amp;#34; , sans-serif ; color: rgb(0 , 0 , 0) ; background-color: transparent ; font-weight: 700 ; font-style: normal ; font-variant: normal ; text-decoration: none ; vertical-align: baseline&quot;&gt;Half`step&lt;/span&gt;&lt;/p&gt;&lt;p dir=&quot;ltr&quot; style=&quot;line-height: 1.38 ; margin-top: 12pt ; margin-bottom: 12pt&quot;&gt;&lt;span style=&quot;font-size: 11pt ; font-family: &amp;#34;advent pro&amp;#34; , sans-serif ; color: rgb(0 , 0 , 0) ; background-color: transparent ; font-weight: 700 ; font-style: normal ; font-variant: normal ; text-decoration: none ; vertical-align: baseline&quot;&gt;Rook`step&lt;/span&gt;&lt;/p&gt;&lt;p dir=&quot;ltr&quot; style=&quot;line-height: 1.38 ; margin-top: 12pt ; margin-bottom: 12pt&quot;&gt;&lt;span style=&quot;font-size: 11pt ; font-family: &amp;#34;advent pro&amp;#34; , sans-serif ; color: rgb(0 , 0 , 0) ; background-color: transparent ; font-weight: 700 ; font-style: normal ; font-variant: normal ; text-decoration: none ; vertical-align: baseline&quot;&gt;Boar`step&lt;/span&gt;&lt;/p&gt;&lt;p dir=&quot;ltr&quot; style=&quot;line-height: 1.38 ; margin-top: 12pt ; margin-bottom: 12pt&quot;&gt;&lt;span style=&quot;font-size: 11pt ; font-family: &amp;#34;advent pro&amp;#34; , sans-serif ; color: rgb(0 , 0 , 0) ; background-color: transparent ; font-weight: 700 ; font-style: normal ; font-variant: normal ; text-decoration: none ; vertical-align: baseline&quot;&gt;Lake`step&lt;/span&gt;&lt;/p&gt;&lt;p dir=&quot;ltr&quot; style=&quot;line-height: 1.38 ; margin-top: 12pt ; margin-bottom: 12pt&quot;&gt;&lt;span style=&quot;font-size: 11pt ; font-family: &amp;#34;advent pro&amp;#34; , sans-serif ; color: rgb(0 , 0 , 0) ; background-color: transparent ; font-weight: 700 ; font-style: normal ; font-variant: normal ; text-decoration: none ; vertical-align: baseline&quot;&gt;Owl`Eyes&lt;/span&gt;&lt;/p&gt;&lt;p dir=&quot;ltr&quot; style=&quot;line-height: 1.38 ; margin-top: 12pt ; margin-bottom: 12pt&quot;&gt;&lt;span style=&quot;font-size: 11pt ; font-family: &amp;#34;advent pro&amp;#34; , sans-serif ; color: rgb(0 , 0 , 0) ; background-color: transparent ; font-weight: 700 ; font-style: normal ; font-variant: normal ; text-decoration: none ; vertical-align: baseline&quot;&gt;Apple`blood&lt;/span&gt;&lt;/p&gt;&lt;/b&gt;" style="text;whiteSpace=wrap;html=1;" parent="hM7QNABl_Ut3n8U8w1K9-1" vertex="1">
          <mxGeometry x="1848" y="8" width="128" height="816" as="geometry" />
        </mxCell>
        <mxCell id="NKNjI-2IuASsNt8At6Xc-1" style="edgeStyle=orthogonalEdgeStyle;rounded=0;sketch=1;orthogonalLoop=1;jettySize=auto;html=1;exitX=0;exitY=0.5;exitDx=0;exitDy=0;entryX=1;entryY=0.5;entryDx=0;entryDy=0;endArrow=none;endFill=0;" parent="hM7QNABl_Ut3n8U8w1K9-1" source="PK3NWCgeounHt1eRXEzG-18" target="PK3NWCgeounHt1eRXEzG-22" edge="1">
          <mxGeometry relative="1" as="geometry" />
        </mxCell>
        <UserObject label="ChicoryPine" lucidchartObjectId="aD6n6iyjvHGV" id="PK3NWCgeounHt1eRXEzG-18">
          <mxCell style="html=1;overflow=block;blockSpacing=1;whiteSpace=wrap;;whiteSpace=wrap;fontSize=16.7;fontColor=#333333;spacing=3.8;strokeColor=#5e5e5e;strokeOpacity=100;rounded=1;absoluteArcSize=1;arcSize=9;strokeWidth=2.3;sketch=1;" parent="hM7QNABl_Ut3n8U8w1K9-1" vertex="1">
            <mxGeometry x="992" y="128" width="120" height="45" as="geometry" />
          </mxCell>
        </UserObject>
        <UserObject label="EagleFace" lucidchartObjectId="aD6n6iyjvHGV" id="PK3NWCgeounHt1eRXEzG-20">
          <mxCell style="html=1;overflow=block;blockSpacing=1;whiteSpace=wrap;;whiteSpace=wrap;fontSize=16.7;fontColor=#333333;spacing=3.8;strokeColor=#5e5e5e;strokeOpacity=100;rounded=1;absoluteArcSize=1;arcSize=9;strokeWidth=2.3;sketch=1;" parent="hM7QNABl_Ut3n8U8w1K9-1" vertex="1">
            <mxGeometry x="444" y="380" width="120" height="45" as="geometry" />
          </mxCell>
        </UserObject>
        <UserObject label="GoldStick" lucidchartObjectId="aD6n6iyjvHGV" id="PK3NWCgeounHt1eRXEzG-21">
          <mxCell style="html=1;overflow=block;blockSpacing=1;whiteSpace=wrap;;whiteSpace=wrap;fontSize=16.7;fontColor=#333333;spacing=3.8;strokeColor=#5e5e5e;strokeOpacity=100;rounded=1;absoluteArcSize=1;arcSize=9;strokeWidth=2.3;sketch=1;" parent="hM7QNABl_Ut3n8U8w1K9-1" vertex="1">
            <mxGeometry x="608" y="380" width="120" height="45" as="geometry" />
          </mxCell>
        </UserObject>
        <UserObject label="WindPoppy" lucidchartObjectId="aD6n6iyjvHGV" id="PK3NWCgeounHt1eRXEzG-22">
          <mxCell style="html=1;overflow=block;blockSpacing=1;whiteSpace=wrap;;whiteSpace=wrap;fontSize=16.7;fontColor=#333333;spacing=3.8;strokeColor=#5e5e5e;strokeOpacity=100;rounded=1;absoluteArcSize=1;arcSize=9;strokeWidth=2.3;sketch=1;" parent="hM7QNABl_Ut3n8U8w1K9-1" vertex="1">
            <mxGeometry x="836" y="128" width="120" height="45" as="geometry" />
          </mxCell>
        </UserObject>
        <UserObject label="DewBranch" lucidchartObjectId="aD6n6iyjvHGV" id="PK3NWCgeounHt1eRXEzG-23">
          <mxCell style="html=1;overflow=block;blockSpacing=1;whiteSpace=wrap;;whiteSpace=wrap;fontSize=16.7;fontColor=#333333;spacing=3.8;strokeColor=#5e5e5e;strokeOpacity=100;rounded=1;absoluteArcSize=1;arcSize=9;strokeWidth=2.3;sketch=1;" parent="hM7QNABl_Ut3n8U8w1K9-1" vertex="1">
            <mxGeometry x="280" y="460" width="120" height="45" as="geometry" />
          </mxCell>
        </UserObject>
        <UserObject label="HalfStep" lucidchartObjectId="aD6n6iyjvHGV" id="PK3NWCgeounHt1eRXEzG-24">
          <mxCell style="html=1;overflow=block;blockSpacing=1;whiteSpace=wrap;;whiteSpace=wrap;fontSize=16.7;fontColor=#333333;spacing=3.8;strokeColor=#5e5e5e;strokeOpacity=100;rounded=1;absoluteArcSize=1;arcSize=9;strokeWidth=2.3;sketch=1;" parent="hM7QNABl_Ut3n8U8w1K9-1" vertex="1">
            <mxGeometry x="444" y="460" width="120" height="45" as="geometry" />
          </mxCell>
        </UserObject>
        <mxCell id="NKNjI-2IuASsNt8At6Xc-5" style="edgeStyle=orthogonalEdgeStyle;rounded=0;sketch=1;orthogonalLoop=1;jettySize=auto;html=1;exitX=0;exitY=0.5;exitDx=0;exitDy=0;entryX=1;entryY=0.5;entryDx=0;entryDy=0;endArrow=none;endFill=0;" parent="hM7QNABl_Ut3n8U8w1K9-1" source="PK3NWCgeounHt1eRXEzG-25" target="PK3NWCgeounHt1eRXEzG-15" edge="1">
          <mxGeometry relative="1" as="geometry" />
        </mxCell>
        <UserObject label="&lt;div&gt;RookStep&lt;/div&gt;" lucidchartObjectId="aD6n6iyjvHGV" id="PK3NWCgeounHt1eRXEzG-25">
          <mxCell style="html=1;overflow=block;blockSpacing=1;whiteSpace=wrap;;whiteSpace=wrap;fontSize=16.7;fontColor=#333333;spacing=3.8;strokeColor=#5e5e5e;strokeOpacity=100;rounded=1;absoluteArcSize=1;arcSize=9;strokeWidth=2.3;sketch=1;" parent="hM7QNABl_Ut3n8U8w1K9-1" vertex="1">
            <mxGeometry x="280" y="196" width="120" height="45" as="geometry" />
          </mxCell>
        </UserObject>
        <UserObject label="SoftStep" lucidchartObjectId="aD6n6iyjvHGV" id="PK3NWCgeounHt1eRXEzG-26">
          <mxCell style="html=1;overflow=block;blockSpacing=1;whiteSpace=wrap;;whiteSpace=wrap;fontSize=16.7;fontColor=#333333;spacing=3.8;strokeColor=#5e5e5e;strokeOpacity=100;rounded=1;absoluteArcSize=1;arcSize=9;strokeWidth=2.3;sketch=1;" parent="hM7QNABl_Ut3n8U8w1K9-1" vertex="1">
            <mxGeometry x="114" y="540" width="120" height="45" as="geometry" />
          </mxCell>
        </UserObject>
        <UserObject label="&lt;div&gt;LakeStep&lt;/div&gt;" lucidchartObjectId="aD6n6iyjvHGV" id="PK3NWCgeounHt1eRXEzG-27">
          <mxCell style="html=1;overflow=block;blockSpacing=1;whiteSpace=wrap;;whiteSpace=wrap;fontSize=16.7;fontColor=#333333;spacing=3.8;strokeColor=#5e5e5e;strokeOpacity=100;rounded=1;absoluteArcSize=1;arcSize=9;strokeWidth=2.3;sketch=1;" parent="hM7QNABl_Ut3n8U8w1K9-1" vertex="1">
            <mxGeometry x="280" y="540" width="120" height="45" as="geometry" />
          </mxCell>
        </UserObject>
        <UserObject label="OwlEyes" lucidchartObjectId="aD6n6iyjvHGV" id="PK3NWCgeounHt1eRXEzG-28">
          <mxCell style="html=1;overflow=block;blockSpacing=1;whiteSpace=wrap;;whiteSpace=wrap;fontSize=16.7;fontColor=#333333;spacing=3.8;strokeColor=#5e5e5e;strokeOpacity=100;rounded=1;absoluteArcSize=1;arcSize=9;strokeWidth=2.3;sketch=1;" parent="hM7QNABl_Ut3n8U8w1K9-1" vertex="1">
            <mxGeometry x="444" y="540" width="120" height="45" as="geometry" />
          </mxCell>
        </UserObject>
        <UserObject label="&lt;div&gt;AppleBlood&lt;/div&gt;" lucidchartObjectId="aD6n6iyjvHGV" id="PK3NWCgeounHt1eRXEzG-29">
          <mxCell style="html=1;overflow=block;blockSpacing=1;whiteSpace=wrap;;whiteSpace=wrap;fontSize=16.7;fontColor=#333333;spacing=3.8;strokeColor=#5e5e5e;strokeOpacity=100;rounded=1;absoluteArcSize=1;arcSize=9;strokeWidth=2.3;sketch=1;" parent="hM7QNABl_Ut3n8U8w1K9-1" vertex="1">
            <mxGeometry x="608" y="540" width="120" height="45" as="geometry" />
          </mxCell>
        </UserObject>
        <mxCell id="PK3NWCgeounHt1eRXEzG-30" value="&lt;b style=&quot;font-weight: normal&quot; id=&quot;docs-internal-guid-a6c9ea57-7fff-ee34-1dac-f8b1a5335bee&quot;&gt;&lt;h1 dir=&quot;ltr&quot; style=&quot;line-height: 1.2 ; text-align: center ; margin-top: 20pt ; margin-bottom: 6pt&quot;&gt;&lt;span style=&quot;font-size: 20pt; font-family: &amp;quot;bad script&amp;quot;, cursive; color: rgb(0, 0, 0); background-color: transparent; font-weight: 700; font-style: normal; font-variant: normal; text-decoration: none; vertical-align: baseline;&quot;&gt;Blaze Above a Cat’s Nose (BlazeClan)&lt;/span&gt;&lt;/h1&gt;&lt;div dir=&quot;ltr&quot; style=&quot;margin-left: 0pt&quot; align=&quot;left&quot;&gt;&lt;table style=&quot;border: none ; border-collapse: collapse&quot;&gt;&lt;colgroup&gt;&lt;col width=&quot;170&quot;&gt;&lt;col width=&quot;329&quot;&gt;&lt;/colgroup&gt;&lt;tbody&gt;&lt;tr style=&quot;height: 0pt&quot;&gt;&lt;td style=&quot;vertical-align: top ; padding: 5pt 5pt 5pt 5pt ; overflow: hidden ; overflow-wrap: break-word&quot;&gt;&lt;p dir=&quot;ltr&quot; style=&quot;line-height: 1.2 ; margin-top: 0pt ; margin-bottom: 0pt&quot;&gt;&lt;span style=&quot;font-size: 20pt; font-family: &amp;quot;bad script&amp;quot;, cursive; color: rgb(0, 0, 0); background-color: transparent; font-weight: 400; font-style: normal; font-variant: normal; text-decoration: none; vertical-align: baseline;&quot;&gt;Fate Holder&lt;/span&gt;&lt;/p&gt;&lt;/td&gt;&lt;td style=&quot;vertical-align: top ; padding: 5pt 5pt 5pt 5pt ; overflow: hidden ; overflow-wrap: break-word&quot;&gt;&lt;p dir=&quot;ltr&quot; style=&quot;line-height: 1.2 ; margin-top: 0pt ; margin-bottom: 0pt&quot;&gt;&lt;span style=&quot;font-size: 11pt; font-family: &amp;quot;bad script&amp;quot;, cursive; color: rgb(0, 0, 0); background-color: transparent; font-weight: 400; font-style: normal; font-variant: normal; text-decoration: none; vertical-align: baseline;&quot;&gt;SmallFate &lt;/span&gt;&lt;span style=&quot;font-size: 11pt; font-family: &amp;quot;times new roman&amp;quot;; color: rgb(0, 0, 0); background-color: transparent; font-weight: 400; font-style: normal; font-variant: normal; text-decoration: none; vertical-align: baseline;&quot;&gt;is a small orange tom with a&amp;nbsp; darker-colored spotted tabby pattern on his back, and he has yellow eyes.&lt;/span&gt;&lt;/p&gt;&lt;/td&gt;&lt;/tr&gt;&lt;tr style=&quot;height: 0pt&quot;&gt;&lt;td style=&quot;vertical-align: top ; padding: 5pt 5pt 5pt 5pt ; overflow: hidden ; overflow-wrap: break-word&quot;&gt;&lt;p dir=&quot;ltr&quot; style=&quot;line-height: 1.2 ; margin-top: 0pt ; margin-bottom: 0pt&quot;&gt;&lt;span style=&quot;font-size: 20pt; font-family: &amp;quot;bad script&amp;quot;, cursive; color: rgb(0, 0, 0); background-color: transparent; font-weight: 400; font-style: normal; font-variant: normal; text-decoration: none; vertical-align: baseline;&quot;&gt;Second in Charges&lt;/span&gt;&lt;/p&gt;&lt;/td&gt;&lt;td style=&quot;vertical-align: top ; padding: 5pt 5pt 5pt 5pt ; overflow: hidden ; overflow-wrap: break-word&quot;&gt;&lt;p dir=&quot;ltr&quot; style=&quot;line-height: 1.2 ; margin-top: 0pt ; margin-bottom: 0pt&quot;&gt;&lt;span style=&quot;font-size: 11pt; font-family: &amp;quot;bad script&amp;quot;, cursive; color: rgb(0, 0, 0); background-color: transparent; font-weight: 400; font-style: normal; font-variant: normal; text-decoration: none; vertical-align: baseline;&quot;&gt;Puddle &lt;/span&gt;&lt;span style=&quot;font-size: 11pt; font-family: &amp;quot;times new roman&amp;quot;; color: rgb(0, 0, 0); background-color: transparent; font-weight: 400; font-style: normal; font-variant: normal; text-decoration: none; vertical-align: baseline;&quot;&gt;is a blue tom with green eyes.&lt;/span&gt;&lt;/p&gt;&lt;/td&gt;&lt;/tr&gt;&lt;tr style=&quot;height: 0pt&quot;&gt;&lt;td style=&quot;vertical-align: top ; padding: 5pt 5pt 5pt 5pt ; overflow: hidden ; overflow-wrap: break-word&quot;&gt;&lt;p dir=&quot;ltr&quot; style=&quot;line-height: 1.2 ; margin-top: 0pt ; margin-bottom: 0pt&quot;&gt;&lt;span style=&quot;font-size: 20pt; font-family: &amp;quot;bad script&amp;quot;, cursive; color: rgb(0, 0, 0); background-color: transparent; font-weight: 400; font-style: normal; font-variant: normal; text-decoration: none; vertical-align: baseline;&quot;&gt;Healer Cats&lt;/span&gt;&lt;/p&gt;&lt;/td&gt;&lt;td style=&quot;vertical-align: top ; padding: 5pt 5pt 5pt 5pt ; overflow: hidden ; overflow-wrap: break-word&quot;&gt;&lt;p dir=&quot;ltr&quot; style=&quot;line-height: 1.2 ; margin-top: 0pt ; margin-bottom: 0pt&quot;&gt;&lt;span style=&quot;font-size: 11pt; font-family: &amp;quot;bad script&amp;quot;, cursive; color: rgb(0, 0, 0); background-color: transparent; font-weight: 400; font-style: normal; font-variant: normal; text-decoration: none; vertical-align: baseline;&quot;&gt;FlameTail &lt;/span&gt;&lt;span style=&quot;font-size: 11pt; font-family: &amp;quot;times new roman&amp;quot;; color: rgb(0, 0, 0); background-color: transparent; font-weight: 400; font-style: normal; font-variant: normal; text-decoration: none; vertical-align: baseline;&quot;&gt;is a red tabby tom with a big, bushy tail and hazel eyes.&lt;/span&gt;&lt;/p&gt;&lt;/td&gt;&lt;/tr&gt;&lt;tr style=&quot;height: 0pt&quot;&gt;&lt;td style=&quot;vertical-align: top ; padding: 5pt 5pt 5pt 5pt ; overflow: hidden ; overflow-wrap: break-word&quot;&gt;&lt;p dir=&quot;ltr&quot; style=&quot;line-height: 1.2 ; margin-top: 0pt ; margin-bottom: 0pt&quot;&gt;&lt;span style=&quot;font-size: 20pt; font-family: &amp;quot;bad script&amp;quot;, cursive; color: rgb(0, 0, 0); background-color: transparent; font-weight: 400; font-style: normal; font-variant: normal; text-decoration: none; vertical-align: baseline;&quot;&gt;Fate Holder Guards&lt;/span&gt;&lt;/p&gt;&lt;/td&gt;&lt;td style=&quot;vertical-align: top ; padding: 5pt 5pt 5pt 5pt ; overflow: hidden ; overflow-wrap: break-word&quot;&gt;&lt;p dir=&quot;ltr&quot; style=&quot;line-height: 1.2 ; margin-top: 0pt ; margin-bottom: 0pt&quot;&gt;&lt;span style=&quot;font-size: 11pt; font-family: &amp;quot;bad script&amp;quot;, cursive; color: rgb(0, 0, 0); background-color: transparent; font-weight: 400; font-style: normal; font-variant: normal; text-decoration: none; vertical-align: baseline;&quot;&gt;SniffleNose&lt;/span&gt;&lt;span style=&quot;font-size: 11pt; font-family: &amp;quot;times new roman&amp;quot;; color: rgb(0, 0, 0); background-color: transparent; font-weight: 400; font-style: normal; font-variant: normal; text-decoration: none; vertical-align: baseline;&quot;&gt; is a blue she-cat with green eyes.&lt;/span&gt;&lt;/p&gt;&lt;br&gt;&lt;/td&gt;&lt;/tr&gt;&lt;tr style=&quot;height: 0pt&quot;&gt;&lt;td style=&quot;vertical-align: top ; padding: 5pt 5pt 5pt 5pt ; overflow: hidden ; overflow-wrap: break-word&quot;&gt;&lt;p dir=&quot;ltr&quot; style=&quot;line-height: 1.2 ; margin-top: 0pt ; margin-bottom: 0pt&quot;&gt;&lt;span style=&quot;font-size: 20pt; font-family: &amp;quot;bad script&amp;quot;, cursive; color: rgb(0, 0, 0); background-color: transparent; font-weight: 400; font-style: normal; font-variant: normal; text-decoration: none; vertical-align: baseline;&quot;&gt;Defenders&lt;/span&gt;&lt;/p&gt;&lt;/td&gt;&lt;td style=&quot;vertical-align: top ; padding: 5pt 5pt 5pt 5pt ; overflow: hidden ; overflow-wrap: break-word&quot;&gt;&lt;p dir=&quot;ltr&quot; style=&quot;line-height: 1.2 ; margin-top: 0pt ; margin-bottom: 0pt&quot;&gt;&lt;span style=&quot;font-size: 11pt; font-family: &amp;quot;bad script&amp;quot;, cursive; color: rgb(0, 0, 0); background-color: transparent; font-weight: 400; font-style: normal; font-variant: normal; text-decoration: none; vertical-align: baseline;&quot;&gt;BlueDash &lt;/span&gt;&lt;span style=&quot;font-size: 11pt; font-family: &amp;quot;times new roman&amp;quot;; color: rgb(0, 0, 0); background-color: transparent; font-weight: 400; font-style: normal; font-variant: normal; text-decoration: none; vertical-align: baseline;&quot;&gt;is a blue tabby tom with greenish-blue eyes.&amp;nbsp;&lt;/span&gt;&lt;/p&gt;&lt;p dir=&quot;ltr&quot; style=&quot;line-height: 1.2 ; margin-top: 0pt ; margin-bottom: 0pt&quot;&gt;&lt;span style=&quot;font-size: 11pt; font-family: &amp;quot;bad script&amp;quot;, cursive; color: rgb(0, 0, 0); background-color: transparent; font-weight: 400; font-style: normal; font-variant: normal; text-decoration: none; vertical-align: baseline;&quot;&gt;PoppyFlight &lt;/span&gt;&lt;span style=&quot;font-size: 11pt; font-family: &amp;quot;times new roman&amp;quot;; color: rgb(0, 0, 0); background-color: transparent; font-weight: 400; font-style: normal; font-variant: normal; text-decoration: none; vertical-align: baseline;&quot;&gt;is a dark brown tabby tomcat with light green eyes.&lt;/span&gt;&lt;/p&gt;&lt;p dir=&quot;ltr&quot; style=&quot;line-height: 1.2 ; margin-top: 0pt ; margin-bottom: 0pt&quot;&gt;&lt;span style=&quot;font-size: 11pt; font-family: &amp;quot;bad script&amp;quot;, cursive; color: rgb(0, 0, 0); background-color: transparent; font-weight: 400; font-style: normal; font-variant: normal; text-decoration: none; vertical-align: baseline;&quot;&gt;ThunderBite&lt;/span&gt;&lt;span style=&quot;font-size: 11pt; font-family: &amp;quot;times new roman&amp;quot;; color: rgb(0, 0, 0); background-color: transparent; font-weight: 400; font-style: normal; font-variant: normal; text-decoration: none; vertical-align: baseline;&quot;&gt; is a yellowish-orange tabby she-cat with green eyes.&lt;/span&gt;&lt;/p&gt;&lt;br&gt;&lt;/td&gt;&lt;/tr&gt;&lt;tr style=&quot;height: 0pt&quot;&gt;&lt;td style=&quot;vertical-align: top ; padding: 5pt 5pt 5pt 5pt ; overflow: hidden ; overflow-wrap: break-word&quot;&gt;&lt;p dir=&quot;ltr&quot; style=&quot;line-height: 1.2 ; margin-top: 0pt ; margin-bottom: 0pt&quot;&gt;&lt;span style=&quot;font-size: 20pt; font-family: &amp;quot;bad script&amp;quot;, cursive; color: rgb(0, 0, 0); background-color: transparent; font-weight: 400; font-style: normal; font-variant: normal; text-decoration: none; vertical-align: baseline;&quot;&gt;Apprentices&lt;/span&gt;&lt;/p&gt;&lt;/td&gt;&lt;td style=&quot;vertical-align: top ; padding: 5pt 5pt 5pt 5pt ; overflow: hidden ; overflow-wrap: break-word&quot;&gt;&lt;p dir=&quot;ltr&quot; style=&quot;line-height: 1.2 ; margin-top: 0pt ; margin-bottom: 0pt&quot;&gt;&lt;span style=&quot;font-size: 11pt; font-family: &amp;quot;bad script&amp;quot;, cursive; color: rgb(0, 0, 0); background-color: transparent; font-weight: 400; font-style: normal; font-variant: normal; text-decoration: none; vertical-align: baseline;&quot;&gt;LostStep &lt;/span&gt;&lt;span style=&quot;font-size: 11pt; font-family: &amp;quot;times new roman&amp;quot;; color: rgb(0, 0, 0); background-color: transparent; font-weight: 400; font-style: normal; font-variant: normal; text-decoration: none; vertical-align: baseline;&quot;&gt;is a red tom with a brownish-red back stripe going from his head to the tip of his back, and he has yellow eyes and a tan-ish-white belly.&lt;/span&gt;&lt;/p&gt;&lt;/td&gt;&lt;/tr&gt;&lt;tr style=&quot;height: 0pt&quot;&gt;&lt;td style=&quot;vertical-align: top ; padding: 5pt 5pt 5pt 5pt ; overflow: hidden ; overflow-wrap: break-word&quot;&gt;&lt;p dir=&quot;ltr&quot; style=&quot;line-height: 1.2 ; margin-top: 0pt ; margin-bottom: 0pt&quot;&gt;&lt;span style=&quot;font-size: 20pt; font-family: &amp;quot;bad script&amp;quot;, cursive; color: rgb(0, 0, 0); background-color: transparent; font-weight: 400; font-style: normal; font-variant: normal; text-decoration: none; vertical-align: baseline;&quot;&gt;Queens&lt;/span&gt;&lt;/p&gt;&lt;/td&gt;&lt;td style=&quot;vertical-align: top ; padding: 5pt 5pt 5pt 5pt ; overflow: hidden ; overflow-wrap: break-word&quot;&gt;&lt;p dir=&quot;ltr&quot; style=&quot;line-height: 1.2 ; margin-top: 0pt ; margin-bottom: 0pt&quot;&gt;&lt;span style=&quot;font-size: 11pt; font-family: &amp;quot;bad script&amp;quot;, cursive; color: rgb(0, 0, 0); background-color: transparent; font-weight: 400; font-style: normal; font-variant: normal; text-decoration: none; vertical-align: baseline;&quot;&gt;CloudedStorm &lt;/span&gt;&lt;span style=&quot;font-size: 11pt; font-family: &amp;quot;times new roman&amp;quot;; color: rgb(0, 0, 0); background-color: transparent; font-weight: 400; font-style: normal; font-variant: normal; text-decoration: none; vertical-align: baseline;&quot;&gt;is a greyish-white tabby she-cat with icy blue eyes.&lt;/span&gt;&lt;/p&gt;&lt;/td&gt;&lt;/tr&gt;&lt;tr style=&quot;height: 0pt&quot;&gt;&lt;td style=&quot;vertical-align: top ; padding: 5pt 5pt 5pt 5pt ; overflow: hidden ; overflow-wrap: break-word&quot;&gt;&lt;p dir=&quot;ltr&quot; style=&quot;line-height: 1.2 ; margin-top: 0pt ; margin-bottom: 0pt&quot;&gt;&lt;span style=&quot;font-size: 20pt; font-family: &amp;quot;bad script&amp;quot;, cursive; color: rgb(0, 0, 0); background-color: transparent; font-weight: 400; font-style: normal; font-variant: normal; text-decoration: none; vertical-align: baseline;&quot;&gt;Wise Ones&lt;/span&gt;&lt;/p&gt;&lt;/td&gt;&lt;td style=&quot;vertical-align: top ; padding: 5pt 5pt 5pt 5pt ; overflow: hidden ; overflow-wrap: break-word&quot;&gt;&lt;p dir=&quot;ltr&quot; style=&quot;line-height: 1.2 ; margin-top: 0pt ; margin-bottom: 0pt&quot;&gt;&lt;span style=&quot;font-size: 11pt; font-family: &amp;quot;bad script&amp;quot;, cursive; color: rgb(0, 0, 0); background-color: transparent; font-weight: 400; font-style: normal; font-variant: normal; text-decoration: none; vertical-align: baseline;&quot;&gt;MorningCry&lt;/span&gt;&lt;span style=&quot;font-size: 11pt; font-family: &amp;quot;times new roman&amp;quot;; color: rgb(0, 0, 0); background-color: transparent; font-weight: 400; font-style: normal; font-variant: normal; text-decoration: none; vertical-align: baseline;&quot;&gt; is a tom elder with tangled, black fur and yellow eyes.&amp;nbsp;&lt;/span&gt;&lt;/p&gt;&lt;/td&gt;&lt;/tr&gt;&lt;tr style=&quot;height: 0pt&quot;&gt;&lt;td style=&quot;vertical-align: top ; padding: 5pt 5pt 5pt 5pt ; overflow: hidden ; overflow-wrap: break-word&quot;&gt;&lt;p dir=&quot;ltr&quot; style=&quot;line-height: 1.2 ; margin-top: 0pt ; margin-bottom: 0pt&quot;&gt;&lt;span style=&quot;font-size: 20pt; font-family: &amp;quot;bad script&amp;quot;, cursive; color: rgb(0, 0, 0); background-color: transparent; font-weight: 400; font-style: normal; font-variant: normal; text-decoration: none; vertical-align: baseline;&quot;&gt;Kits&lt;/span&gt;&lt;/p&gt;&lt;/td&gt;&lt;td style=&quot;vertical-align: top ; padding: 5pt 5pt 5pt 5pt ; overflow: hidden ; overflow-wrap: break-word&quot;&gt;&lt;p dir=&quot;ltr&quot; style=&quot;line-height: 1.2 ; margin-top: 0pt ; margin-bottom: 0pt&quot;&gt;&lt;span style=&quot;font-size: 11pt; font-family: &amp;quot;bad script&amp;quot;, cursive; color: rgb(0, 0, 0); background-color: transparent; font-weight: 400; font-style: normal; font-variant: normal; text-decoration: none; vertical-align: baseline;&quot;&gt;VineKit &lt;/span&gt;&lt;span style=&quot;font-size: 11pt; font-family: &amp;quot;times new roman&amp;quot;; color: rgb(0, 0, 0); background-color: transparent; font-weight: 400; font-style: normal; font-variant: normal; text-decoration: none; vertical-align: baseline;&quot;&gt;is a black tabby she-kit with green eyes.&lt;/span&gt;&lt;/p&gt;&lt;p dir=&quot;ltr&quot; style=&quot;line-height: 1.2 ; margin-top: 0pt ; margin-bottom: 0pt&quot;&gt;&lt;span style=&quot;font-size: 11pt; font-family: &amp;quot;bad script&amp;quot;, cursive; color: rgb(0, 0, 0); background-color: transparent; font-weight: 400; font-style: normal; font-variant: normal; text-decoration: none; vertical-align: baseline;&quot;&gt;LeapingKit&lt;/span&gt;&lt;span style=&quot;font-size: 11pt; font-family: &amp;quot;times new roman&amp;quot;; color: rgb(0, 0, 0); background-color: transparent; font-weight: 400; font-style: normal; font-variant: normal; text-decoration: none; vertical-align: baseline;&quot;&gt; is a small dark brown tabby she-kit with light green eyes.&lt;/span&gt;&lt;/p&gt;&lt;/td&gt;&lt;/tr&gt;&lt;/tbody&gt;&lt;/table&gt;&lt;/div&gt;&lt;/b&gt;" style="text;whiteSpace=wrap;html=1;" parent="hM7QNABl_Ut3n8U8w1K9-1" vertex="1">
          <mxGeometry x="1264" y="64" width="540" height="716" as="geometry" />
        </mxCell>
        <UserObject label="SmallFate" lucidchartObjectId="aD6n6iyjvHGV" id="PK3NWCgeounHt1eRXEzG-31">
          <mxCell style="html=1;overflow=block;blockSpacing=1;whiteSpace=wrap;;whiteSpace=wrap;fontSize=16.7;fontColor=#333333;spacing=3.8;strokeColor=#5e5e5e;strokeOpacity=100;rounded=1;absoluteArcSize=1;arcSize=9;strokeWidth=2.3;sketch=1;" parent="hM7QNABl_Ut3n8U8w1K9-1" vertex="1">
            <mxGeometry x="114" y="620" width="120" height="45" as="geometry" />
          </mxCell>
        </UserObject>
        <UserObject label="&lt;div&gt;Puddle&lt;/div&gt;" lucidchartObjectId="aD6n6iyjvHGV" id="PK3NWCgeounHt1eRXEzG-33">
          <mxCell style="html=1;overflow=block;blockSpacing=1;whiteSpace=wrap;;whiteSpace=wrap;fontSize=16.7;fontColor=#333333;spacing=3.8;strokeColor=#5e5e5e;strokeOpacity=100;rounded=1;absoluteArcSize=1;arcSize=9;strokeWidth=2.3;sketch=1;" parent="hM7QNABl_Ut3n8U8w1K9-1" vertex="1">
            <mxGeometry x="764" y="196" width="120" height="45" as="geometry" />
          </mxCell>
        </UserObject>
        <UserObject label="&lt;div&gt;&lt;span&gt; &lt;/span&gt;&lt;/div&gt;&lt;div&gt;FlameTail&lt;/div&gt;" lucidchartObjectId="aD6n6iyjvHGV" id="PK3NWCgeounHt1eRXEzG-34">
          <mxCell style="html=1;overflow=block;blockSpacing=1;whiteSpace=wrap;;whiteSpace=wrap;fontSize=16.7;fontColor=#333333;spacing=3.8;strokeColor=#5e5e5e;strokeOpacity=100;rounded=1;absoluteArcSize=1;arcSize=9;strokeWidth=2.3;sketch=1;" parent="hM7QNABl_Ut3n8U8w1K9-1" vertex="1">
            <mxGeometry x="444" y="620" width="120" height="45" as="geometry" />
          </mxCell>
        </UserObject>
        <mxCell id="NKNjI-2IuASsNt8At6Xc-2" style="edgeStyle=orthogonalEdgeStyle;rounded=0;sketch=1;orthogonalLoop=1;jettySize=auto;html=1;exitX=0;exitY=0.5;exitDx=0;exitDy=0;entryX=1;entryY=0.5;entryDx=0;entryDy=0;endArrow=none;endFill=0;" parent="hM7QNABl_Ut3n8U8w1K9-1" source="PK3NWCgeounHt1eRXEzG-35" target="PK3NWCgeounHt1eRXEzG-33" edge="1">
          <mxGeometry relative="1" as="geometry" />
        </mxCell>
        <mxCell id="NKNjI-2IuASsNt8At6Xc-3" style="edgeStyle=orthogonalEdgeStyle;rounded=0;sketch=1;orthogonalLoop=1;jettySize=auto;html=1;exitX=1;exitY=0.5;exitDx=0;exitDy=0;entryX=0;entryY=0.5;entryDx=0;entryDy=0;endArrow=none;endFill=0;" parent="hM7QNABl_Ut3n8U8w1K9-1" source="PK3NWCgeounHt1eRXEzG-35" target="PK3NWCgeounHt1eRXEzG-36" edge="1">
          <mxGeometry relative="1" as="geometry" />
        </mxCell>
        <mxCell id="NKNjI-2IuASsNt8At6Xc-4" style="edgeStyle=orthogonalEdgeStyle;rounded=0;sketch=1;orthogonalLoop=1;jettySize=auto;html=1;exitX=0.5;exitY=0;exitDx=0;exitDy=0;endArrow=none;endFill=0;" parent="hM7QNABl_Ut3n8U8w1K9-1" source="PK3NWCgeounHt1eRXEzG-35" edge="1">
          <mxGeometry relative="1" as="geometry">
            <mxPoint x="975.9655172413793" y="152" as="targetPoint" />
          </mxGeometry>
        </mxCell>
        <UserObject label="&lt;div&gt;SniffleNose&lt;/div&gt;" lucidchartObjectId="aD6n6iyjvHGV" id="PK3NWCgeounHt1eRXEzG-35">
          <mxCell style="html=1;overflow=block;blockSpacing=1;whiteSpace=wrap;;whiteSpace=wrap;fontSize=16.7;fontColor=#333333;spacing=3.8;strokeColor=#5e5e5e;strokeOpacity=100;rounded=1;absoluteArcSize=1;arcSize=9;strokeWidth=2.3;sketch=1;" parent="hM7QNABl_Ut3n8U8w1K9-1" vertex="1">
            <mxGeometry x="916" y="196" width="120" height="45" as="geometry" />
          </mxCell>
        </UserObject>
        <UserObject label="BlueDash" lucidchartObjectId="aD6n6iyjvHGV" id="PK3NWCgeounHt1eRXEzG-36">
          <mxCell style="html=1;overflow=block;blockSpacing=1;whiteSpace=wrap;;whiteSpace=wrap;fontSize=16.7;fontColor=#333333;spacing=3.8;strokeColor=#5e5e5e;strokeOpacity=100;rounded=1;absoluteArcSize=1;arcSize=9;strokeWidth=2.3;sketch=1;" parent="hM7QNABl_Ut3n8U8w1K9-1" vertex="1">
            <mxGeometry x="1068" y="196" width="120" height="45" as="geometry" />
          </mxCell>
        </UserObject>
        <UserObject label="&lt;div&gt;PoppyFlight&lt;/div&gt;" lucidchartObjectId="aD6n6iyjvHGV" id="PK3NWCgeounHt1eRXEzG-37">
          <mxCell style="html=1;overflow=block;blockSpacing=1;whiteSpace=wrap;;whiteSpace=wrap;fontSize=16.7;fontColor=#333333;spacing=3.8;strokeColor=#5e5e5e;strokeOpacity=100;rounded=1;absoluteArcSize=1;arcSize=9;strokeWidth=2.3;sketch=1;" parent="hM7QNABl_Ut3n8U8w1K9-1" vertex="1">
            <mxGeometry x="280" y="696" width="120" height="45" as="geometry" />
          </mxCell>
        </UserObject>
        <UserObject label="&lt;div&gt;&lt;span&gt; &lt;/span&gt;&lt;/div&gt;&lt;div&gt;LostStep&lt;/div&gt;" lucidchartObjectId="aD6n6iyjvHGV" id="PK3NWCgeounHt1eRXEzG-38">
          <mxCell style="html=1;overflow=block;blockSpacing=1;whiteSpace=wrap;;whiteSpace=wrap;fontSize=16.7;fontColor=#333333;spacing=3.8;strokeColor=#5e5e5e;strokeOpacity=100;rounded=1;absoluteArcSize=1;arcSize=9;strokeWidth=2.3;sketch=1;" parent="hM7QNABl_Ut3n8U8w1K9-1" vertex="1">
            <mxGeometry x="608" y="696" width="120" height="45" as="geometry" />
          </mxCell>
        </UserObject>
        <UserObject label="&lt;div&gt;ThunderBite&lt;/div&gt;" lucidchartObjectId="aD6n6iyjvHGV" id="PK3NWCgeounHt1eRXEzG-39">
          <mxCell style="html=1;overflow=block;blockSpacing=1;whiteSpace=wrap;;whiteSpace=wrap;fontSize=16.7;fontColor=#333333;spacing=3.8;strokeColor=#5e5e5e;strokeOpacity=100;rounded=1;absoluteArcSize=1;arcSize=9;strokeWidth=2.3;sketch=1;" parent="hM7QNABl_Ut3n8U8w1K9-1" vertex="1">
            <mxGeometry x="444" y="696" width="120" height="45" as="geometry" />
          </mxCell>
        </UserObject>
        <UserObject label="MorningCry" lucidchartObjectId="aD6n6iyjvHGV" id="PK3NWCgeounHt1eRXEzG-41">
          <mxCell style="html=1;overflow=block;blockSpacing=1;whiteSpace=wrap;;whiteSpace=wrap;fontSize=16.7;fontColor=#333333;spacing=3.8;strokeColor=#5e5e5e;strokeOpacity=100;rounded=1;absoluteArcSize=1;arcSize=9;strokeWidth=2.3;sketch=1;" parent="hM7QNABl_Ut3n8U8w1K9-1" vertex="1">
            <mxGeometry x="444" y="776" width="120" height="45" as="geometry" />
          </mxCell>
        </UserObject>
        <UserObject label="VineKit" lucidchartObjectId="aD6n6iyjvHGV" id="PK3NWCgeounHt1eRXEzG-43">
          <mxCell style="html=1;overflow=block;blockSpacing=1;whiteSpace=wrap;;whiteSpace=wrap;fontSize=16.7;fontColor=#333333;spacing=3.8;strokeColor=#5e5e5e;strokeOpacity=100;rounded=1;absoluteArcSize=1;arcSize=9;strokeWidth=2.3;sketch=1;" parent="hM7QNABl_Ut3n8U8w1K9-1" vertex="1">
            <mxGeometry x="114" y="776" width="120" height="45" as="geometry" />
          </mxCell>
        </UserObject>
        <UserObject label="LeapingKit" lucidchartObjectId="aD6n6iyjvHGV" id="PK3NWCgeounHt1eRXEzG-44">
          <mxCell style="html=1;overflow=block;blockSpacing=1;whiteSpace=wrap;;whiteSpace=wrap;fontSize=16.7;fontColor=#333333;spacing=3.8;strokeColor=#5e5e5e;strokeOpacity=100;rounded=1;absoluteArcSize=1;arcSize=9;strokeWidth=2.3;sketch=1;" parent="hM7QNABl_Ut3n8U8w1K9-1" vertex="1">
            <mxGeometry x="278" y="776" width="120" height="45" as="geometry" />
          </mxCell>
        </UserObject>
        <mxCell id="NKNjI-2IuASsNt8At6Xc-6" value="" style="endArrow=none;html=1;rounded=0;sketch=1;" parent="hM7QNABl_Ut3n8U8w1K9-1" edge="1">
          <mxGeometry width="50" height="50" relative="1" as="geometry">
            <mxPoint x="256" y="216" as="sourcePoint" />
            <mxPoint x="256" y="140" as="targetPoint" />
          </mxGeometry>
        </mxCell>
      </root>
    </mxGraphModel>
  </diagram>
</mxfile>
